o obj1
v -0.6462824 0.11401571 4.429866
v -0.7008736 0.27202541 4.42986601
v -0.5849402 0.47282791 4.42986602
v -0.4222196 0.50210361 4.42986602
v -0.5684662 -0.3273017 4.63431399
v -0.8191688 -0.2593931 4.58498199
v -0.8594321 -0.03104885 4.479198
v -0.00111967 0.65537149 4.87175903
v 0.195747 0.87992339 4.81446504
v 0.4136306 0.80062039 4.69160703
v 0.4199803 0.5021036 4.63431402
v -0.2251822 -0.61535121 4.79760797
v -0.3783389 -0.65794271 4.75820597
v -0.5559592 -0.5089015 4.67371598
v 0.5693697 0.46349669 4.70470202
v 0.6853031 0.26269409 4.85564001
v 0.6440432 0.11401568 4.926029
v 0.7955931 -0.04158191 5.006396
v 0.7553299 -0.26992622 5.00639599
v 0.5662271 -0.32730172 4.92602899
v 0.5904547 -0.48592571 4.85563998
v 0.4128344 -0.63496691 4.70470197
v 0.2229431 -0.6153511 4.63431397
v 0.1272895 -0.9258972 4.67371596
v 0.08120435 -0.22310705 5.77949899
v -0.08120429 -0.22310705 5.77949899
v -0.1045773 -0.92589731 4.75820596
v -0.2338185 0.04122858 5.779499
v -0.1526142 0.18187855 5.77949901
v -0.3940144 0.7350184 4.53649203
v -0.1761309 0.81432139 4.76513404
v 0.2338185 0.04122858 5.779499
v 0.1526142 0.18187865 5.77949901
v 0.2056166 -0.11871275 5.77949899
v -0.2056165 -0.11871275 5.77949899
v 0 0.23742565 5.77949901
v 0.00288117 0.10083612 6.411809
v 0.01372981 0.44372716 5.49075302
v -0.1675669 0.44862346 5.49075302
v -0.02540361 0.13585542 6.41180901
v 0.06072306 -0.07718293 6.411809
v 0.287468 -0.38080174 5.52181598
v 0.4821838 -0.29565154 5.55690799
v 0.1226804 -0.09469262 6.411809
v 0.05945086 0.17356862 6.41180901
v 0.2612512 0.55178276 5.53334002
v 0.05680716 -0.12529948 6.39798199
v 0.1354187 -0.48222255 5.61646998
v -0.3005509 -0.38563985 5.77321098
v -0.05496072 -0.07718293 6.411809
v -0.1317339 -0.10681468 6.411809
v -0.5252213 -0.33956645 5.70505599
v -0.1418789 -0.48472585 5.74654598
v -0.04835098 -0.12529948 6.39798199
v -0.4494391 0.10721516 5.490753
v -0.4072175 0.27450716 5.49075301
v -0.1674821 0.00320716 6.411809
v -0.6022584 -0.08455586 5.558908
v -0.09070897 0.03283889 6.411809
v -0.1189938 0.06785823 6.411809
v 0.1530411 0.10557132 6.411809
v 0.4937978 0.40005885 5.62466202
v 0.0964713 0.03283889 6.411809
v 0.4631689 0.15049265 5.66724901
v 0.1584286 0.0153292 6.411809
v 0.573094 -0.02075172 5.632157
v 0 1E-08 6.723278
v 0.4701709 0.56032768 2.76639802
v 0.6437563 0.54166468 2.73506402
v 0.7925541 0.28393928 2.64307901
v 0.7203434 0.12701589 2.61174501
v 0 0.73145589 2.57626303
v 0.1759531 0.94675869 2.61014304
v 0.4785648 0.83661708 2.73251804
v 0.6334594 -0.36572782 2.85068098
v 0.7406846 -0.68144622 2.83034397
v 0.5423663 -0.84785512 2.78673496
v 0.2501728 -0.68734362 2.76639797
v -0.4701707 0.56032769 2.57626302
v -0.4258522 0.73219889 2.57626303
v -0.1825788 0.82074309 2.57626304
v 0.1294432 -0.81024172 2.72093796
v -0.1294429 -0.81024171 2.62345696
v -0.2501725 -0.68734371 2.57799697
v -0.5654094 -0.87089861 2.54380796
v -0.7637279 -0.70448981 2.47049397
v -0.6334593 -0.36572801 2.43630498
v -0.8003653 -0.30060051 2.51595399
v -0.8453203 -0.04564738 2.686749
v -0.7203434 0.12701588 2.76639801
v -0.9672237 0.39287448 2.72052002
v -0.3954701 0.069732 4.206495
v -0.2581248 0.30762112 4.20649501
v -0.8377807 0.61707649 2.62214103
v 0.2581249 0.30762112 4.20649501
v 0.3954702 0.069732 4.206495
v 0.9336038 -0.00878566 2.658973
v 0.8810668 -0.30673752 2.80345299
v -0.1373452 -0.37735328 4.20649498
v 0.1373454 -0.37735318 4.20649498
v -0.3477705 -0.20078548 4.20649499
v 0 0.40157082 4.20649502
v 0.3477707 -0.20078538 4.20649499
v -0.05373072 0.06403384 3.131757
v -0.08232033 0.01451525 3.153486
v 0.05373084 0.06403384 3.153486
v 0 0.08359024 3.131757
v 0.0285896 -0.07854916 3.153486
v 0.07239139 -0.04179515 3.163118
v -0.07239133 -0.04179515 3.115763
v 0.08232039 0.01451525 3.135812
v -0.02858948 -0.07854916 3.131955
v 0.2781172 0.04949303 5.06778
v 0.1811392 0.21746378 4.94152001
v -0.0980975 -0.26618872 5.01219699
v 0.09585833 -0.26618862 4.94151999
v -0.2803565 0.04949304 4.853032
v -0.2466763 -0.14151622 4.94151999
v -0.00111961 0.28380058 5.04429101
v 0.2444372 -0.14151622 5.06777999
v -0.1833785 0.21746369 4.85303201
v -0.04984861 0.13523627 0.57485441
v -0.1656832 0.06761816 0.5921477
v -0.133003 0.06761815 6.18201
v -0.01588457 0.13523633 6.18201001
v -0.1656832 0.06761816 0.5921477
v -0.1656832 -0.0676181 0.5921477
v -0.133003 -0.0676181 6.18201
v -0.133003 0.06761815 6.18201
v -0.1656832 -0.0676181 0.5921477
v -0.04984861 -0.13523623 0.57485439
v -0.01588457 -0.13523627 6.18200999
v -0.133003 -0.0676181 6.18201
v -0.04984861 -0.13523623 0.57485439
v 0.06598591 -0.06761809 0.5575611
v 0.1012337 -0.0676181 6.18201
v -0.01588457 -0.13523627 6.18200999
v 0.06598591 -0.06761809 0.5575611
v 0.06598591 0.06761817 0.5575611
v 0.1012337 0.06761815 6.18201
v 0.1012337 -0.0676181 6.18201
v 0.06598591 0.06761817 0.5575611
v -0.04984861 0.13523627 0.57485441
v -0.01588457 0.13523633 6.18201001
v 0.1012337 0.06761815 6.18201
v -0.133003 0.06761813 -0.00571221
v -0.01588457 0.1352363 -0.00571221
v 0.1012337 0.06761813 -0.00571221
v 0.1012337 -0.06761807 -0.00571221
v -0.01588457 -0.1352362 -0.00571222
v -0.133003 -0.06761813 -0.00571221
v 0.1012337 0.06761813 -0.00571221
v -0.01588457 0.1352363 -0.00571221
v -0.04984861 0.13523627 0.57485441
v 0.06598591 0.06761817 0.5575611
v 0.1012337 -0.06761807 -0.00571221
v 0.1012337 0.06761813 -0.00571221
v 0.06598591 0.06761817 0.5575611
v 0.06598591 -0.06761809 0.5575611
v -0.01588457 -0.1352362 -0.00571222
v 0.1012337 -0.06761807 -0.00571221
v 0.06598591 -0.06761809 0.5575611
v -0.04984861 -0.13523623 0.57485439
v -0.133003 -0.06761813 -0.00571221
v -0.01588457 -0.1352362 -0.00571222
v -0.04984861 -0.13523623 0.57485439
v -0.1656832 -0.0676181 0.5921477
v -0.133003 0.06761813 -0.00571221
v -0.133003 -0.06761813 -0.00571221
v -0.1656832 -0.0676181 0.5921477
v -0.1656832 0.06761816 0.5921477
v -0.01588457 0.1352363 -0.00571221
v -0.133003 0.06761813 -0.00571221
v -0.1656832 0.06761816 0.5921477
v -0.04984861 0.13523627 0.57485441
v -0.6294739 0.11105372 1.875916
v -0.6826401 0.26493852 1.87591601
v -0.569733 0.46049912 1.87591602
v -0.4112603 0.48901052 1.87591602
v -0.5536891 -0.31874329 2.00587799
v -0.7978472 -0.25260739 1.97451899
v -0.8370593 -0.03022398 1.907275
v -0.00115305 0.63827751 2.15681603
v 0.1905745 0.85696751 2.12039604
v 0.4027702 0.77973461 2.04229803
v 0.4089542 0.48901061 2.00587802
v -0.2193666 -0.59927329 2.10967997
v -0.3685251 -0.64075279 2.08463397
v -0.5415086 -0.49560239 2.03092498
v 0.5544437 0.45141151 2.05062202
v 0.6673508 0.25585081 2.14657001
v 0.6271679 0.1110537 2.191314
v 0.9033069 -0.04702071 2.191314
v 0.8640947 -0.2694042 2.19131399
v 0.5513832 -0.3187432 2.19131399
v 0.5749784 -0.47322639 2.14656998
v 0.4019948 -0.61837679 2.05062197
v 0.2170606 -0.59927309 2.00587797
v 0.1239041 -0.90171259 2.03092496
v 0.06724345 -0.18254113 2.91790399
v -0.0654897 -0.18254113 2.91790399
v -0.1019099 -0.90171249 2.08463396
v -0.1902182 0.03349475 2.917904
v -0.1238515 0.14844507 2.91790401
v -0.3837913 0.71584512 1.94369503
v -0.1715956 0.79307811 2.08903703
v 0.1919718 0.03349475 2.917904
v 0.1256052 0.14844517 2.91790401
v 0.168923 -0.09722192 2.917904
v -0.1671693 -0.09722192 2.917904
v 0.00087679 0.19384257 2.91790401
v 0.06782418 0.01242621 2.234644
v 0.0438686 0.05391838 2.214287
v -0.02510851 -0.06555358 2.225682
v 0.02280253 -0.06555352 2.214287
v -0.07013016 0.01242621 2.20002
v -0.06181049 -0.03475693 2.214287
v -0.00115299 0.07030494 2.230857
v 0.0595045 -0.03475693 2.234644
v -0.04617464 0.05391838 2.20002
v -0.4476279 -0.53977335 3.52746798
v -0.6222611 -0.50601685 3.52746798
v -0.7456089 -0.29237215 3.52746799
v -0.6860202 -0.12686565 3.52746799
v 0.00040358 -0.70284347 3.78900297
v -0.1955362 -0.89771786 3.72589596
v -0.4273543 -0.81334296 3.59057396
v -0.6032275 0.34267572 4.09275101
v -0.7054036 0.64352762 4.01945903
v -0.5164238 0.80210053 3.86229504
v -0.2379891 0.64914723 3.78900303
v 0.4484349 -0.53977347 3.99789398
v 0.4062033 -0.70355137 3.94748997
v 0.1743851 -0.78792627 3.83940697
v -0.1229445 0.76625833 3.87904603
v 0.1237512 0.76625832 4.07213103
v 0.2387958 0.64914742 4.16217403
v 0.5391888 0.82405902 4.16217404
v 0.7281687 0.66548612 4.16217403
v 0.6040344 0.34267602 4.16217401
v 0.763081 0.28061532 4.07213101
v 0.8059193 0.0376674 3.879046
v 0.6868272 -0.12686547 3.78900299
v 0.9220825 -0.38020517 3.83940698
v 0.2500073 -0.04880034 5.253957
v 0.1636096 -0.19844553 5.25395699
v 0.7987347 -0.59384997 3.94748997
v -0.1611396 -0.19844553 5.25395699
v -0.2475373 -0.04880034 5.253957
v -0.885626 0.02302833 3.663866
v -0.8427878 0.26597613 3.95635201
v 0.08763259 0.23244057 5.25395701
v -0.08516281 0.23244057 5.25395701
v 0.2200016 0.12136987 5.25395701
v 0.00123495 -0.25754513 5.25395699
v -0.2175318 0.12136977 5.25395701
v 0.1035835 0.27765451 4.34350501
v -0.1027767 0.27765432 4.18199001
v 0.1943187 -0.23692959 4.27240199
v 0.2974987 -0.05821639 4.18199
v -0.1935117 -0.23692958 4.06879399
v 0.00040352 -0.30750898 4.18198999
v -0.2608578 0.14500861 4.31345701
v 0.2616646 0.14500871 4.34350501
v -0.2966918 -0.05821645 4.068794
v -0.1948692 0.03955536 5.545911
v -0.1297777 -0.17591285 5.66939699
v 0.2041082 0.0584756 5.623072
v 0.00762075 0.18667296 5.54591101
v 0.1272947 -0.17379774 5.55949099
vn 0 -1 -0
vn 0.06811 -0.90978 0.40946
vn -0.43993 -0.88362 -0.16023
vn 0.29247 -0.93851 0.18349
vn 0.27278 -0.83807 0.47247
vn 0.40855 -0.90989 0.07204
vn 0.35296 -0.83404 -0.42402
vn 0.11751 0.54836 0.82794
vn -0.34234 -0.93948 0.01375
vn -0.80814 0.35946 -0.46658
vn 0.65753 -0.71203 -0.24633
vn 0.90186 0.42948 0.04695
vn -0.88222 0.28045 0.3782
vn -0.97908 0.2018 -0.02618
vn 0.57904 0.34146 -0.74035
vn 0.67807 0.44232 -0.58701
vn 0.10848 0.29112 -0.95052
vn 0.79382 0.59182 0.13997
vn 0.15925 0.29736 0.94139
vn 0.42647 0.45711 0.78049
vn -0.20549 0.29426 0.93337
vn 0.9174 0.39636 0.03577
vn 0.94207 0.20699 0.26391
vn -0.64645 0.43885 0.62411
vn 0.16828 0.3443 0.92365
vn -0.95329 0.30207 0.00011
vn -0.89381 0.44701 0.03582
vn -0.51832 0.2032 -0.83069
vn -0.30003 0.26213 0.91721
vn -0.171 0.25967 -0.95044
vn -0.91222 0.26179 0.31517
vn -0.53874 0.45469 -0.70924
vn 0.49571 0.36272 -0.78912
vn 0.44013 0.5391 -0.7181
vn -0.6745 0.30945 -0.67029
vn 0.97491 0.22152 0.02178
vn 0.17733 0.31876 -0.9311
vn 0.19746 0.33297 0.92203
vn -0.51994 0.26408 -0.81235
vn 0.73609 0.3608 0.57271
vn -0.14541 0.42792 0.89204
vn -0.50565 0.49775 0.70467
vn 0 -1 0
vn 0.15557 0.44041 0.88421
vn -0.38157 -0.87148 0.30811
vn -0.8738 0.48002 0.07779
vn 0.17357 -0.87616 0.4497
vn -0.6243 0.27373 -0.73166
vn -0.55208 0.34324 -0.75987
vn -0.93841 0.33943 -0.06464
vn 0.40741 0.45298 -0.79299
vn 0.90911 0.36675 0.1975
vn 0.24738 -0.94962 0.19241
vn 0.82305 0.44161 0.35716
vn 0.86121 0.42428 0.27982
vn 0.06847 -0.96779 -0.24227
vn 0.71417 0.39696 -0.57653
vn -0.14479 -0.9554 -0.2574
vn 0.33262 -0.93478 0.12473
vn 0.12727 -0.98611 -0.10675
vn 0 -1 -0
vn 0.35239 -0.93585 0
vn 0.20731 -0.96216 0.17683
vn -0.1925 -0.83063 -0.5225
vn -0.75824 0.39173 -0.52117
vn -0.16524 -0.93469 0.31474
vn 0.85213 0.28464 -0.43915
vn -0.07085 -0.90238 0.42508
vn -0.73399 0.17573 0.65603
vn 0.16707 0.12977 -0.97737
vn 0.51087 0.13457 -0.84906
vn 0.48829 0.13042 0.86288
vn -0.04955 0.27121 0.96124
vn 0.65844 0.20733 0.72351
vn -0.63697 0.35844 0.68249
vn -0.92326 0.11484 -0.36662
vn -0.92666 0.27749 0.25359
vn -0.83543 0.20869 -0.50843
vn -0.30278 0.13675 0.9432
vn -0.73749 0.14009 0.66067
vn -0.32936 0.26956 -0.90491
vn -0.95546 0.16247 -0.24637
vn 0.43223 0.17885 -0.88385
vn 0.25251 0.34841 -0.90269
vn 0.98957 0.14352 0.01246
vn -0.7778 0.12466 -0.61603
vn 0.88325 0.16415 0.43922
vn 0.13895 0.19097 -0.97171
vn 0.93557 0.34457 0.07739
vn 0.25898 0.17024 0.95076
vn 0.56175 0.40562 0.72105
vn 0.93776 0.16011 -0.30817
vn -0.48407 0.14773 0.86247
vn 0.36382 -0.75729 0.54235
vn 0.06991 -0.75729 0.64932
vn -0.20613 -0.85798 -0.4705
vn 0.50407 -0.67381 -0.54027
vn -0.58251 -0.76696 0.26919
vn 0.59813 -0.68902 -0.40926
vn 0.23053 -0.7387 0.63338
vn -0.62379 -0.7772 0.08276
vn 0.28553 -0.75829 -0.58606
vn -0.17064 -0.73779 0.6531
vn -0.28021 -0.76898 -0.57459
vn 0.73108 -0.65909 0.17642
vn -0.55357 -0.75535 0.35073
vn 0.06302 -0.73779 -0.67208
vn 0.74148 -0.60858 0.28258
vn -0.37044 -0.92656 -0.06532
vn 0.58399 -0.76898 -0.26004
vn 0.66799 -0.63644 0.38566
vn -0.50189 0.00299 -0.86492
vn -0.99998 0.00585 0
vn -0.50189 0.00299 0.86492
vn 0.50189 -0.00309 0.86493
vn 0.99998 -0.00627 0
vn 0.50189 -0.00309 -0.86493
vn 0.50352 0.03047 -0.86345
vn 0.99805 0.06245 0
vn 0.50352 0.03047 0.86345
vn -0.50344 -0.02847 0.86356
vn -0.99851 -0.05458 0
vn -0.50344 -0.02847 -0.86356
vn -0.35286 0.19915 -0.91424
vn 0.26739 0.18257 -0.94613
vn 0.7769 0.17692 0.60425
vn 0 0.35944 0.93317
vn 0.96425 0.22334 0.14265
vn -0.95679 0.21684 0.19375
vn -0.84785 0.45306 0.27548
vn 0.35512 0.16534 0.92008
vn -0.54559 0.37204 -0.75094
vn -0.76813 0.15829 0.62042
vn 0.76124 0.20609 -0.61485
vn 0.51219 0.49061 -0.70496
vn -0.77527 0.18804 -0.60299
vn -0.2674 0.18233 0.94618
vn 0.04683 -0.9584 0.28155
vn -0.30712 -0.94507 -0.11186
vn 0.19779 -0.97236 0.12408
vn 0.19553 -0.92037 0.33867
vn 0 -1 -0
vn 0.2536 -0.91808 -0.30465
vn 0.09574 0.63916 0.76309
vn -0.23138 -0.97282 0.0093
vn -0.76825 0.46158 -0.44355
vn 0.50684 -0.84087 -0.18988
vn 0.85883 0.50564 0.08209
vn -0.86235 0.35189 0.36405
vn -0.96056 0.27601 -0.03385
vn 0.46282 0.36351 -0.80849
vn 0.65121 0.53265 -0.54057
vn 0.12022 0.37985 -0.9172
vn 0.70218 0.70115 0.12381
vn 0.14553 0.35782 0.92238
vn 0.41711 0.54785 0.72517
vn -0.18611 0.38288 0.90486
vn 0.88493 0.46572 -0.00027
vn 0.92575 0.27207 0.26262
vn -0.6026 0.53303 0.59393
vn 0.17572 0.42452 0.88821
vn -0.92001 0.39182 0.00787
vn -0.83406 0.55005 0.04232
vn -0.51185 0.27632 -0.81342
vn -0.28629 0.339 0.89617
vn -0.16604 0.34744 -0.92289
vn -0.88525 0.35042 0.30585
vn -0.48522 0.55405 -0.67646
vn 0.50485 0.43428 -0.74601
vn 0.39047 0.62902 -0.67221
vn -0.66386 0.37844 -0.64504
vn 0.95654 0.29116 0.01613
vn 0.00738 -0.89942 0.43702
vn -0.22189 -0.93294 -0.28353
vn 0.46951 -0.86466 0.17867
vn -0.38094 -0.91684 0.11952
vn 0.15641 -0.89942 -0.40814
vn 0.58763 -0.80234 0.10459
vn -0.07969 -0.99672 -0.01405
vn 0.35223 -0.93294 -0.07457
vn 0.44951 -0.85475 0.25952
vn 0 -1 -0
vn 0.45033 -0.87675 0.16887
vn -0.41168 -0.84339 0.34528
vn 0.35751 -0.91453 -0.18927
vn 0.61634 -0.78748 0
vn -0.21519 -0.78266 -0.58408
vn 0.81444 0.47881 0.32776
vn -0.18666 -0.91583 0.35555
vn -0.82473 0.3051 0.47616
vn 0.12567 -0.64472 -0.75402
vn 0.50619 0.36781 -0.78006
vn -0.11498 0.23613 0.96489
vn -0.51546 0.1689 0.8401
vn -0.48698 0.25178 -0.83634
vn -0.17468 0.3795 -0.90855
vn -0.77918 0.24535 -0.57679
vn 0.5313 0.56285 -0.63318
vn 0.90431 0.2476 0.34774
vn 0.91926 0.39306 0.02162
vn 0.71519 0.24807 0.65343
vn 0.50198 0.33795 -0.79612
vn 0.70426 0.17331 -0.68847
vn 0.22402 0.37634 0.89899
vn 0.90066 0.29174 0.32203
vn -0.48339 0.25484 0.83749
vn -0.42932 0.38379 0.81755
vn -0.98485 0.17009 0.03375
vn 0.65125 0.22036 0.72617
vn -0.91819 0.21825 -0.33059
vn -0.18513 0.22007 0.95776
vn -0.91316 0.39083 0.11569
vn -0.44465 0.30799 -0.84109
vn -0.42113 0.46992 -0.77578
vn -0.93159 0.26126 0.25274
vn 0.51019 0.18565 -0.83978
vn 0.52648 -0.67266 0.51996
vn -0.70522 -0.70727 -0.04935
vn 0.55696 -0.58903 -0.58553
vn 0.02969 -0.69203 0.72126
vn -0.60348 -0.67266 -0.42819
vn 0.65392 -0.53779 -0.53214
vn -0.28196 -0.89866 0.33602
vn 0.07386 -0.70727 -0.70307
vn 0.71405 -0.56584 -0.41226
vn 0.06114 -0.87385 0.48234
vn 0.23614 -0.94893 0.20923
vn -0.38858 -0.9115 0.13478
vn 0.15316 -0.96546 0.2108
vn 0.08038 -0.96785 -0.23835
vt 0.1017 0.37699
vt 0.34581 0.85362
vt 0.39638 0.85362
vt 0.39638 0.90419
vt 0.34581 0.90419
vt 0.37109 0.90419
vt 0.39299 0.89155
vt 0.39299 0.86627
vt 0.37109 0.85362
vt 0.3492 0.86627
vt 0.3492 0.89155
usemtl mat0
f 1/1/1 2/1/1 3/1/1
f 1/1/1 3/1/1 4/1/1
f 5/1/2 6/1/2 7/1/2
f 5/1/2 7/1/2 1/1/2
f 8/1/3 9/1/3 10/1/3
f 8/1/3 10/1/3 11/1/3
f 12/1/4 13/1/4 14/1/4
f 12/1/4 14/1/4 5/1/4
f 11/1/5 15/1/5 16/1/5
f 11/1/5 16/1/5 17/1/5
f 17/1/6 18/1/6 19/1/6
f 17/1/6 19/1/6 20/1/6
f 20/1/7 21/1/7 22/1/7
f 20/1/7 22/1/7 23/1/7
f 24/1/8 25/1/8 26/1/8
f 24/1/8 26/1/8 27/1/8
f 23/1/9 24/1/9 27/1/9
f 23/1/9 27/1/9 12/1/9
f 2/1/10 28/1/10 29/1/10
f 2/1/10 29/1/10 3/1/10
f 4/1/11 30/1/11 31/1/11
f 4/1/11 31/1/11 8/1/11
f 17/1/12 16/1/12 32/1/12
f 12/1/13 27/1/13 26/1/13
f 29/1/14 30/1/14 4/1/14
f 32/1/15 18/1/15 17/1/15
f 15/1/16 33/1/16 32/1/16
f 15/1/16 32/1/16 16/1/16
f 33/1/17 15/1/17 11/1/17
f 18/1/18 32/1/18 34/1/18
f 18/1/18 34/1/18 19/1/18
f 20/1/19 19/1/19 34/1/19
f 21/1/20 34/1/20 25/1/20
f 21/1/20 25/1/20 22/1/20
f 23/1/21 22/1/21 25/1/21
f 34/1/22 21/1/22 20/1/22
f 25/1/23 24/1/23 23/1/23
f 13/1/24 26/1/24 35/1/24
f 13/1/24 35/1/24 14/1/24
f 26/1/25 13/1/25 12/1/25
f 5/1/26 14/1/26 35/1/26
f 6/1/27 35/1/27 28/1/27
f 6/1/27 28/1/27 7/1/27
f 1/1/28 7/1/28 28/1/28
f 35/1/29 6/1/29 5/1/29
f 4/1/30 3/1/30 29/1/30
f 28/1/31 2/1/31 1/1/31
f 30/1/32 29/1/32 36/1/32
f 30/1/32 36/1/32 31/1/32
f 8/1/33 31/1/33 36/1/33
f 9/1/34 36/1/34 33/1/34
f 9/1/34 33/1/34 10/1/34
f 36/1/35 9/1/35 8/1/35
f 11/1/36 10/1/36 33/1/36
f 37/1/37 38/1/37 39/1/37
f 37/1/37 39/1/37 40/1/37
f 41/1/38 42/1/38 43/1/38
f 41/1/38 43/1/38 44/1/38
f 38/1/39 37/1/39 45/1/39
f 38/1/39 45/1/39 46/1/39
f 42/1/40 41/1/40 47/1/40
f 42/1/40 47/1/40 48/1/40
f 49/1/41 50/1/41 51/1/41
f 49/1/41 51/1/41 52/1/41
f 50/1/42 49/1/42 53/1/42
f 50/1/42 53/1/42 54/1/42
f 38/1/43 55/1/43 56/1/43
f 38/1/43 56/1/43 39/1/43
f 47/1/44 54/1/44 53/1/44
f 47/1/44 53/1/44 48/1/44
f 49/1/45 42/1/45 48/1/45
f 49/1/45 48/1/45 53/1/45
f 51/1/46 57/1/46 58/1/46
f 51/1/46 58/1/46 52/1/46
f 55/1/47 49/1/47 52/1/47
f 55/1/47 52/1/47 58/1/47
f 59/1/48 55/1/48 58/1/48
f 59/1/48 58/1/48 57/1/48
f 60/1/49 40/1/49 39/1/49
f 60/1/49 39/1/49 56/1/49
f 55/1/50 59/1/50 60/1/50
f 55/1/50 60/1/50 56/1/50
f 45/1/51 61/1/51 62/1/51
f 45/1/51 62/1/51 46/1/51
f 63/1/52 64/1/52 62/1/52
f 63/1/52 62/1/52 61/1/52
f 64/1/53 38/1/53 46/1/53
f 64/1/53 46/1/53 62/1/53
f 65/1/54 44/1/54 43/1/54
f 65/1/54 43/1/54 66/1/54
f 44/1/55 65/1/55 67/1/55
f 42/1/56 64/1/56 66/1/56
f 42/1/56 66/1/56 43/1/56
f 64/1/57 63/1/57 65/1/57
f 64/1/57 65/1/57 66/1/57
f 68/1/58 69/1/58 70/1/58
f 68/1/58 70/1/58 71/1/58
f 72/1/59 73/1/59 74/1/59
f 72/1/59 74/1/59 68/1/59
f 75/1/60 76/1/60 77/1/60
f 75/1/60 77/1/60 78/1/60
f 79/1/61 80/1/61 81/1/61
f 79/1/61 81/1/61 72/1/61
f 78/1/62 82/1/62 83/1/62
f 78/1/62 83/1/62 84/1/62
f 84/1/63 85/1/63 86/1/63
f 84/1/63 86/1/63 87/1/63
f 87/1/64 88/1/64 89/1/64
f 87/1/64 89/1/64 90/1/64
f 91/1/65 92/1/65 93/1/65
f 91/1/65 93/1/65 94/1/65
f 90/1/66 91/1/66 94/1/66
f 90/1/66 94/1/66 79/1/66
f 69/1/67 95/1/67 96/1/67
f 69/1/67 96/1/67 70/1/67
f 71/1/68 97/1/68 98/1/68
f 71/1/68 98/1/68 75/1/68
f 84/1/69 83/1/69 99/1/69
f 79/1/70 94/1/70 93/1/70
f 96/1/71 97/1/71 71/1/71
f 99/1/72 85/1/72 84/1/72
f 82/1/73 100/1/73 99/1/73
f 82/1/73 99/1/73 83/1/73
f 100/1/74 82/1/74 78/1/74
f 85/1/75 99/1/75 101/1/75
f 85/1/75 101/1/75 86/1/75
f 87/1/76 86/1/76 101/1/76
f 88/1/77 101/1/77 92/1/77
f 88/1/77 92/1/77 89/1/77
f 90/1/78 89/1/78 92/1/78
f 101/1/79 88/1/79 87/1/79
f 92/1/80 91/1/80 90/1/80
f 80/1/81 93/1/81 102/1/81
f 80/1/81 102/1/81 81/1/81
f 93/1/82 80/1/82 79/1/82
f 72/1/83 81/1/83 102/1/83
f 73/1/84 102/1/84 95/1/84
f 73/1/84 95/1/84 74/1/84
f 68/1/85 74/1/85 95/1/85
f 102/1/86 73/1/86 72/1/86
f 71/1/87 70/1/87 96/1/87
f 95/1/88 69/1/88 68/1/88
f 97/1/89 96/1/89 103/1/89
f 97/1/89 103/1/89 98/1/89
f 75/1/90 98/1/90 103/1/90
f 76/1/91 103/1/91 100/1/91
f 76/1/91 100/1/91 77/1/91
f 103/1/92 76/1/92 75/1/92
f 78/1/93 77/1/93 100/1/93
f 90/1/94 79/1/94 104/1/94
f 90/1/94 104/1/94 105/1/94
f 72/1/95 68/1/95 106/1/95
f 72/1/95 106/1/95 107/1/95
f 75/1/96 78/1/96 108/1/96
f 75/1/96 108/1/96 109/1/96
f 87/1/97 90/1/97 105/1/97
f 87/1/97 105/1/97 110/1/97
f 71/1/98 75/1/98 109/1/98
f 71/1/98 109/1/98 111/1/98
f 84/1/99 87/1/99 110/1/99
f 84/1/99 110/1/99 112/1/99
f 79/1/100 72/1/100 107/1/100
f 79/1/100 107/1/100 104/1/100
f 68/1/101 71/1/101 111/1/101
f 68/1/101 111/1/101 106/1/101
f 78/1/102 84/1/102 112/1/102
f 78/1/102 112/1/102 108/1/102
f 11/1/103 17/1/103 113/1/103
f 11/1/103 113/1/103 114/1/103
f 23/1/104 12/1/104 115/1/104
f 23/1/104 115/1/104 116/1/104
f 5/1/105 1/1/105 117/1/105
f 5/1/105 117/1/105 118/1/105
f 8/1/106 11/1/106 114/1/106
f 8/1/106 114/1/106 119/1/106
f 20/1/107 23/1/107 116/1/107
f 20/1/107 116/1/107 120/1/107
f 4/1/108 8/1/108 119/1/108
f 4/1/108 119/1/108 121/1/108
f 17/1/109 20/1/109 120/1/109
f 17/1/109 120/1/109 113/1/109
f 12/1/110 5/1/110 118/1/110
f 12/1/110 118/1/110 115/1/110
f 1/1/111 4/1/111 121/1/111
f 1/1/111 121/1/111 117/1/111
f 122/2/112 123/3/112 124/4/112
f 122/2/112 124/4/112 125/5/112
f 126/2/113 127/3/113 128/4/113
f 126/2/113 128/4/113 129/5/113
f 130/2/114 131/3/114 132/4/114
f 130/2/114 132/4/114 133/5/114
f 134/2/115 135/3/115 136/4/115
f 134/2/115 136/4/115 137/5/115
f 138/2/116 139/3/116 140/4/116
f 138/2/116 140/4/116 141/5/116
f 142/2/117 143/3/117 144/4/117
f 142/2/117 144/4/117 145/5/117
f 146/6/43 147/7/43 148/8/43
f 146/6/43 148/8/43 149/9/43
f 146/6/43 149/9/43 150/10/43
f 146/6/43 150/10/43 151/11/43
f 152/2/118 153/3/118 154/4/118
f 152/2/118 154/4/118 155/5/118
f 156/2/119 157/3/119 158/4/119
f 156/2/119 158/4/119 159/5/119
f 160/2/120 161/3/120 162/4/120
f 160/2/120 162/4/120 163/5/120
f 164/2/121 165/3/121 166/4/121
f 164/2/121 166/4/121 167/5/121
f 168/2/122 169/3/122 170/4/122
f 168/2/122 170/4/122 171/5/122
f 172/2/123 173/3/123 174/4/123
f 172/2/123 174/4/123 175/5/123
f 67/1/124 59/1/124 57/1/124
f 63/1/125 67/1/125 65/1/125
f 67/1/126 63/1/126 61/1/126
f 54/1/127 47/1/127 67/1/127
f 41/1/128 67/1/128 47/1/128
f 67/1/129 50/1/129 54/1/129
f 57/1/130 51/1/130 67/1/130
f 50/1/131 67/1/131 51/1/131
f 40/1/132 60/1/132 67/1/132
f 59/1/133 67/1/133 60/1/133
f 67/1/134 37/1/134 40/1/134
f 61/1/135 45/1/135 67/1/135
f 37/1/136 67/1/136 45/1/136
f 67/1/137 41/1/137 44/1/137
f 176/1/43 177/1/43 178/1/43
f 176/1/43 178/1/43 179/1/43
f 180/1/138 181/1/138 182/1/138
f 180/1/138 182/1/138 176/1/138
f 183/1/139 184/1/139 185/1/139
f 183/1/139 185/1/139 186/1/139
f 187/1/140 188/1/140 189/1/140
f 187/1/140 189/1/140 180/1/140
f 186/1/141 190/1/141 191/1/141
f 186/1/141 191/1/141 192/1/141
f 192/1/142 193/1/142 194/1/142
f 192/1/142 194/1/142 195/1/142
f 195/1/143 196/1/143 197/1/143
f 195/1/143 197/1/143 198/1/143
f 199/1/144 200/1/144 201/1/144
f 199/1/144 201/1/144 202/1/144
f 198/1/145 199/1/145 202/1/145
f 198/1/145 202/1/145 187/1/145
f 177/1/146 203/1/146 204/1/146
f 177/1/146 204/1/146 178/1/146
f 179/1/147 205/1/147 206/1/147
f 179/1/147 206/1/147 183/1/147
f 192/1/148 191/1/148 207/1/148
f 187/1/149 202/1/149 201/1/149
f 204/1/150 205/1/150 179/1/150
f 207/1/151 193/1/151 192/1/151
f 190/1/152 208/1/152 207/1/152
f 190/1/152 207/1/152 191/1/152
f 208/1/153 190/1/153 186/1/153
f 193/1/154 207/1/154 209/1/154
f 193/1/154 209/1/154 194/1/154
f 195/1/155 194/1/155 209/1/155
f 196/1/156 209/1/156 200/1/156
f 196/1/156 200/1/156 197/1/156
f 198/1/157 197/1/157 200/1/157
f 209/1/158 196/1/158 195/1/158
f 200/1/159 199/1/159 198/1/159
f 188/1/160 201/1/160 210/1/160
f 188/1/160 210/1/160 189/1/160
f 201/1/161 188/1/161 187/1/161
f 180/1/162 189/1/162 210/1/162
f 181/1/163 210/1/163 203/1/163
f 181/1/163 203/1/163 182/1/163
f 176/1/164 182/1/164 203/1/164
f 210/1/165 181/1/165 180/1/165
f 179/1/166 178/1/166 204/1/166
f 203/1/167 177/1/167 176/1/167
f 205/1/168 204/1/168 211/1/168
f 205/1/168 211/1/168 206/1/168
f 183/1/169 206/1/169 211/1/169
f 184/1/170 211/1/170 208/1/170
f 184/1/170 208/1/170 185/1/170
f 211/1/171 184/1/171 183/1/171
f 186/1/172 185/1/172 208/1/172
f 186/1/173 192/1/173 212/1/173
f 186/1/173 212/1/173 213/1/173
f 198/1/174 187/1/174 214/1/174
f 198/1/174 214/1/174 215/1/174
f 180/1/175 176/1/175 216/1/175
f 180/1/175 216/1/175 217/1/175
f 183/1/176 186/1/176 213/1/176
f 183/1/176 213/1/176 218/1/176
f 195/1/177 198/1/177 215/1/177
f 195/1/177 215/1/177 219/1/177
f 179/1/178 183/1/178 218/1/178
f 179/1/178 218/1/178 220/1/178
f 192/1/179 195/1/179 219/1/179
f 192/1/179 219/1/179 212/1/179
f 187/1/180 180/1/180 217/1/180
f 187/1/180 217/1/180 214/1/180
f 176/1/181 179/1/181 220/1/181
f 176/1/181 220/1/181 216/1/181
f 221/1/182 222/1/182 223/1/182
f 221/1/182 223/1/182 224/1/182
f 225/1/183 226/1/183 227/1/183
f 225/1/183 227/1/183 221/1/183
f 228/1/184 229/1/184 230/1/184
f 228/1/184 230/1/184 231/1/184
f 232/1/185 233/1/185 234/1/185
f 232/1/185 234/1/185 225/1/185
f 231/1/186 235/1/186 236/1/186
f 231/1/186 236/1/186 237/1/186
f 237/1/43 238/1/43 239/1/43
f 237/1/43 239/1/43 240/1/43
f 240/1/187 241/1/187 242/1/187
f 240/1/187 242/1/187 243/1/187
f 244/1/188 245/1/188 246/1/188
f 244/1/188 246/1/188 247/1/188
f 243/1/189 244/1/189 247/1/189
f 243/1/189 247/1/189 232/1/189
f 222/1/190 248/1/190 249/1/190
f 222/1/190 249/1/190 223/1/190
f 224/1/191 250/1/191 251/1/191
f 224/1/191 251/1/191 228/1/191
f 237/1/192 236/1/192 252/1/192
f 232/1/193 247/1/193 246/1/193
f 249/1/194 250/1/194 224/1/194
f 252/1/195 238/1/195 237/1/195
f 235/1/196 253/1/196 252/1/196
f 235/1/196 252/1/196 236/1/196
f 253/1/197 235/1/197 231/1/197
f 238/1/198 252/1/198 254/1/198
f 238/1/198 254/1/198 239/1/198
f 240/1/199 239/1/199 254/1/199
f 241/1/200 254/1/200 245/1/200
f 241/1/200 245/1/200 242/1/200
f 243/1/201 242/1/201 245/1/201
f 254/1/202 241/1/202 240/1/202
f 245/1/203 244/1/203 243/1/203
f 233/1/204 246/1/204 255/1/204
f 233/1/204 255/1/204 234/1/204
f 246/1/205 233/1/205 232/1/205
f 225/1/206 234/1/206 255/1/206
f 226/1/207 255/1/207 248/1/207
f 226/1/207 248/1/207 227/1/207
f 221/1/208 227/1/208 248/1/208
f 255/1/209 226/1/209 225/1/209
f 224/1/210 223/1/210 249/1/210
f 248/1/211 222/1/211 221/1/211
f 250/1/212 249/1/212 256/1/212
f 250/1/212 256/1/212 251/1/212
f 228/1/213 251/1/213 256/1/213
f 229/1/214 256/1/214 253/1/214
f 229/1/214 253/1/214 230/1/214
f 256/1/215 229/1/215 228/1/215
f 231/1/216 230/1/216 253/1/216
f 231/1/217 237/1/217 257/1/217
f 231/1/217 257/1/217 258/1/217
f 243/1/218 232/1/218 259/1/218
f 243/1/218 259/1/218 260/1/218
f 225/1/219 221/1/219 261/1/219
f 225/1/219 261/1/219 262/1/219
f 228/1/220 231/1/220 258/1/220
f 228/1/220 258/1/220 263/1/220
f 240/1/221 243/1/221 260/1/221
f 240/1/221 260/1/221 264/1/221
f 224/1/222 228/1/222 263/1/222
f 224/1/222 263/1/222 265/1/222
f 237/1/223 240/1/223 264/1/223
f 237/1/223 264/1/223 257/1/223
f 232/1/224 225/1/224 262/1/224
f 232/1/224 262/1/224 259/1/224
f 221/1/225 224/1/225 265/1/225
f 221/1/225 265/1/225 261/1/225
f 49/1/226 55/1/226 266/1/226
f 49/1/226 266/1/226 267/1/226
f 38/1/227 64/1/227 268/1/227
f 38/1/227 268/1/227 269/1/227
f 42/1/228 49/1/228 267/1/228
f 42/1/228 267/1/228 270/1/228
f 55/1/229 38/1/229 269/1/229
f 55/1/229 269/1/229 266/1/229
f 64/1/230 42/1/230 270/1/230
f 64/1/230 270/1/230 268/1/230
# Vertices: 270, normals: 230, texture coordinates: 11, faces: 381

