o obj1
v -0.08116388 -0.46115911 0.22179918
v -0.1970229 -0.49854891 0.22179918
v -0.3349074 -0.41894131 0.22179918
v -0.3587029 -0.30092171 0.22179919
v 0.2344421 -0.40550922 0.36800858
v 0.1826261 -0.58537131 0.33122327
v 0.02582967 -0.61301871 0.25858467
v -0.4683117 0.0002258 0.5378171
v -0.6277697 0.14411648 0.49509421
v -0.5733149 0.29372998 0.41073141
v -0.3587029 0.30137338 0.36800861
v 0.4404393 -0.16001152 0.48478809
v 0.4687761 -0.27206982 0.45540699
v 0.3664345 -0.39403582 0.39738968
v -0.3282341 0.40985918 0.42049602
v -0.1903496 0.48946688 0.52414042
v -0.08116382 0.46161067 0.57662782
v 0.03816384 0.66381007 0.57662783
v 0.1949604 0.63616277 0.57662783
v 0.2344421 0.40596097 0.57662782
v 0.3500035 0.42075808 0.52414042
v 0.4523451 0.29879208 0.42049601
v 0.4404392 0.16046308 0.36800861
v 0.6625247 0.08875534 0.3973897
v 0.223107 0.0812043 1.063519
v 0.223107 -0.08120434 1.063519
v 0.6625247 -0.07045992 0.455407
v -0.04122859 -0.23381855 1.06351899
v -0.1818786 -0.15261415 1.06351899
v -0.5264 -0.27764851 0.30130759
v -0.5808548 -0.12803502 0.45830869
v -0.04122859 0.23381855 1.06351901
v -0.1818786 0.15261415 1.06351901
v 0.1187127 0.20561655 1.06351901
v 0.1187127 -0.20561655 1.06351899
v -0.2374256 -5E-08 1.063519
v -0.06614178 0.00404416 1.666662
v -0.2667862 0.01068236 1.024213
v -0.2676472 -0.10137114 1.024213
v -0.08936971 -0.01471681 1.666662
v 0.05193632 0.04241006 1.666662
v 0.2297591 0.17553215 1.04292001
v 0.175184 0.29388345 1.06495501
v 0.06355035 0.08350567 1.666662
v -0.1143844 0.04156624 1.666662
v -0.33004 0.16253235 1.05095501
v 0.08385151 0.03981267 1.65749
v 0.2908664 0.0806405 1.101482
v 0.2326726 -0.17858275 1.19431399
v 0.05193632 -0.03432167 1.666662
v 0.07159078 -0.08524454 1.666662
v 0.2018688 -0.31480685 1.15151799
v 0.2923139 -0.0797029 1.176696
v 0.08385151 -0.02993757 1.65749
v -0.06413298 -0.26824584 1.02421299
v -0.1669667 -0.23994574 1.02421299
v -0.00138551 -0.10895597 1.666662
v 0.05441242 -0.35935245 1.06700998
v -0.0210399 -0.05803311 1.666662
v -0.04426789 -0.07679415 1.666662
v -0.06928259 0.10364363 1.666662
v -0.2423077 0.29699915 1.10376001
v 0.00046927 0.00245622 1.966206
v -0.0210399 0.0661215 1.666662
v -0.09019547 0.28134225 1.13050201
v -0.00942594 0.10721713 1.666662
v 0.016227 0.34645105 1.10846702
v -0.00792158 0.04623362 0.6237353
v -0.0355969 0.03025528 0.6029324
v 0.04409092 -0.01575252 0.6145772
v 0.04409092 0.01620414 0.6029324
v -0.00792158 -0.045782 0.5883529
v 0.02354955 -0.0402328 0.6029324
v -0.04652678 0.00022581 0.6198651
v 0.02354955 0.04068443 0.6237353
v -0.0355969 -0.02980366 0.5883529
v -0.08103954 -0.03890312 0.3316665
v -0.04048103 -0.10838272 0.347481
v -0.04433929 -0.09612894 1.466031
v -0.08869016 -0.01931077 1.466031
v -0.04048103 -0.10838272 0.347481
v 0.04063588 -0.10838272 0.347481
v 0.0443623 -0.09612894 1.466031
v -0.04433929 -0.09612894 1.466031
v 0.04063588 -0.10838272 0.347481
v 0.0811944 -0.03890312 0.3316665
v 0.08871316 -0.01931077 1.466031
v 0.0443623 -0.09612894 1.466031
v 0.0811944 -0.03890312 0.3316665
v 0.04063588 0.03057639 0.3158518
v 0.0443623 0.05750733 1.466031
v 0.08871316 -0.01931077 1.466031
v 0.04063588 0.03057639 0.3158518
v -0.04048103 0.03057639 0.3158518
v -0.04433929 0.05750733 1.466031
v 0.0443623 0.05750733 1.466031
v -0.04048103 0.03057639 0.3158518
v -0.08103954 -0.03890312 0.3316665
v -0.08869016 -0.01931077 1.466031
v -0.04433929 0.05750733 1.466031
v -0.04433929 -0.09612894 -0.00571222
v -0.08869016 -0.01931077 -0.00571221
v -0.04433929 0.05750733 -0.00571227
v 0.0443623 0.05750733 -0.00571227
v 0.08871316 -0.01931077 -0.00571221
v 0.0443623 -0.09612894 -0.00571222
v -0.04433929 0.05750733 -0.00571227
v -0.08869016 -0.01931077 -0.00571221
v -0.08103954 -0.03890312 0.3316665
v -0.04048103 0.03057639 0.3158518
v 0.0443623 0.05750733 -0.00571227
v -0.04433929 0.05750733 -0.00571227
v -0.04048103 0.03057639 0.3158518
v 0.04063588 0.03057639 0.3158518
v 0.08871316 -0.01931077 -0.00571221
v 0.0443623 0.05750733 -0.00571227
v 0.04063588 0.03057639 0.3158518
v 0.0811944 -0.03890312 0.3316665
v 0.0443623 -0.09612894 -0.00571222
v 0.08871316 -0.01931077 -0.00571221
v 0.0811944 -0.03890312 0.3316665
v 0.04063588 -0.10838272 0.347481
v -0.04433929 -0.09612894 -0.00571222
v 0.0443623 -0.09612894 -0.00571222
v 0.04063588 -0.10838272 0.347481
v -0.04048103 -0.10838272 0.347481
v -0.08869016 -0.01931077 -0.00571221
v -0.04433929 -0.09612894 -0.00571222
v -0.04048103 -0.10838272 0.347481
v -0.08103954 -0.03890312 0.3316665
v -0.0183804 0.07915742 1.096024
v -0.06616741 0.00591452 1.067261
v 0.06899046 -0.04530226 1.113292
v 0.06820207 0.0505243 1.072324
v -0.01132768 -0.06956588 1.067261
vn 0 -1 0
vn 0.40946 -0.90978 -0.06811
vn -0.16023 -0.88362 0.43993
vn 0.18349 -0.93851 -0.29247
vn 0.47247 -0.83807 -0.27278
vn 0 -1 0
vn -0.42401 -0.83404 -0.35296
vn 0.81821 0.56578 -0.10206
vn 0.01375 -0.93948 0.34234
vn -0.4697 0.34281 0.81355
vn -0.24633 -0.71202 -0.65753
vn 0.02851 0.42167 -0.9063
vn 0.39057 0.26665 0.88111
vn -0.04933 0.18335 0.98181
vn -0.82296 0.29472 -0.48567
vn -0.56617 0.44301 -0.69512
vn -0.95277 0.27138 -0.13629
vn 0.1292 0.66816 -0.73272
vn 0.94304 0.2907 -0.16174
vn 0.76544 0.46205 -0.44791
vn 0.9438 0.27382 0.18513
vn 0.06055 0.3921 -0.91793
vn 0.27807 0.1941 -0.94075
vn 0.63629 0.43584 0.63654
vn 0.9322 0.32974 -0.14927
vn 0.02124 0.27942 0.95993
vn 0.0553 0.44581 0.89342
vn -0.82396 0.18386 0.53599
vn 0.91777 0.24298 0.31409
vn -0.95304 0.23407 0.19216
vn 0.29847 0.23564 0.92487
vn -0.72991 0.46068 0.50498
vn -0.80085 0.35194 -0.48454
vn -0.71818 0.55713 -0.41691
vn -0.68218 0.29932 0.66711
vn 0.00648 0.20757 -0.9782
vn -0.94735 0.26851 -0.17445
vn 0.93575 0.28082 -0.21332
vn -0.82648 0.22095 0.5178
vn 0.60653 0.30605 -0.7338
vn 0.92957 0.34347 0.13392
vn 0.73271 0.40979 0.54333
vn 0 -1 0
vn 0.92121 0.36807 -0.12611
vn 0.30814 -0.87158 0.3813
vn 0.12284 0.40967 0.90392
vn 0.4497 -0.87616 -0.17357
vn -0.7312 0.2306 0.642
vn -0.77409 0.29067 0.56241
vn -0.07228 0.2869 0.95523
vn -0.8093 0.38516 -0.44348
vn -0.7545 0.36087 -0.54818
vn 0.20701 0.3005 -0.93105
vn 0.19241 -0.94962 -0.24738
vn 0.35232 0.37421 -0.85781
vn -0.24227 -0.96779 -0.06847
vn -0.59739 0.3277 -0.73194
vn 0.59564 -0.80313 -0.01395
vn -0.3968 -0.86243 0.31427
vn 0.23774 -0.74872 -0.61879
vn 0.16207 -0.83315 0.52877
vn -0.55495 -0.80313 -0.21683
vn 0.12847 -0.66044 -0.73981
vn -0.02049 -0.99301 0.11623
vn -0.10196 -0.86243 -0.4958
vn 0.33949 -0.73416 -0.58801
vn -0.86501 0.00267 0.50175
vn 0 0.01095 0.99994
vn 0.86501 0.00277 0.50174
vn 0.86547 -0.01446 -0.50075
vn 0 -0.02341 -0.99973
vn -0.86548 -0.01456 -0.50074
vn -0.86138 0.05073 -0.50542
vn 0 0.08346 -0.99651
vn 0.86141 0.05038 -0.5054
vn 0.86442 -0.00911 0.50268
vn 0 -0.03467 0.9994
vn -0.86444 -0.00877 0.50266
vn -0.92395 0.13836 0.35661
vn -0.95465 0.12589 -0.26979
vn 0.6093 0.12275 -0.78338
vn 0.96541 0.26075 0
vn 0.12349 0.15202 -0.98063
vn 0.17668 0.1498 0.9728
vn 0.2915 0.33188 0.89715
vn 0.9267 0.11531 -0.35767
vn -0.77979 0.26636 0.56655
vn 0.62444 0.11128 0.77311
vn -0.62194 0.14238 -0.77002
vn -0.60863 0.1312 0.78253
vn 0.29411 0.30686 -0.90517
vn 0.95439 0.12801 0.26972
vn 0.20923 -0.94893 -0.23614
vn 0.13478 -0.9115 0.38859
vn 0.2108 -0.96546 -0.15316
vn -0.23835 -0.96785 -0.08038
vn 0.48234 -0.87385 -0.06114
vt 0.61901 0.36449
vt 0.34581 0.85362
vt 0.39638 0.85362
vt 0.39638 0.90419
vt 0.34581 0.90419
vt 0.37109 0.90419
vt 0.39299 0.89155
vt 0.39299 0.86627
vt 0.37109 0.85362
vt 0.3492 0.86627
vt 0.3492 0.89155
usemtl mat0
f 1/1/1 2/1/1 3/1/1
f 1/1/1 3/1/1 4/1/1
f 5/1/2 6/1/2 7/1/2
f 5/1/2 7/1/2 1/1/2
f 8/1/3 9/1/3 10/1/3
f 8/1/3 10/1/3 11/1/3
f 12/1/4 13/1/4 14/1/4
f 12/1/4 14/1/4 5/1/4
f 11/1/5 15/1/5 16/1/5
f 11/1/5 16/1/5 17/1/5
f 17/1/6 18/1/6 19/1/6
f 17/1/6 19/1/6 20/1/6
f 20/1/7 21/1/7 22/1/7
f 20/1/7 22/1/7 23/1/7
f 24/1/8 25/1/8 26/1/8
f 24/1/8 26/1/8 27/1/8
f 23/1/9 24/1/9 27/1/9
f 23/1/9 27/1/9 12/1/9
f 2/1/10 28/1/10 29/1/10
f 2/1/10 29/1/10 3/1/10
f 4/1/11 30/1/11 31/1/11
f 4/1/11 31/1/11 8/1/11
f 17/1/12 16/1/12 32/1/12
f 12/1/13 27/1/13 26/1/13
f 29/1/14 30/1/14 4/1/14
f 32/1/15 18/1/15 17/1/15
f 15/1/16 33/1/16 32/1/16
f 15/1/16 32/1/16 16/1/16
f 33/1/17 15/1/17 11/1/17
f 18/1/18 32/1/18 34/1/18
f 18/1/18 34/1/18 19/1/18
f 20/1/19 19/1/19 34/1/19
f 21/1/20 34/1/20 25/1/20
f 21/1/20 25/1/20 22/1/20
f 23/1/21 22/1/21 25/1/21
f 34/1/22 21/1/22 20/1/22
f 25/1/23 24/1/23 23/1/23
f 13/1/24 26/1/24 35/1/24
f 13/1/24 35/1/24 14/1/24
f 26/1/25 13/1/25 12/1/25
f 5/1/26 14/1/26 35/1/26
f 6/1/27 35/1/27 28/1/27
f 6/1/27 28/1/27 7/1/27
f 1/1/28 7/1/28 28/1/28
f 35/1/29 6/1/29 5/1/29
f 4/1/30 3/1/30 29/1/30
f 28/1/31 2/1/31 1/1/31
f 30/1/32 29/1/32 36/1/32
f 30/1/32 36/1/32 31/1/32
f 8/1/33 31/1/33 36/1/33
f 9/1/34 36/1/34 33/1/34
f 9/1/34 33/1/34 10/1/34
f 36/1/35 9/1/35 8/1/35
f 11/1/36 10/1/36 33/1/36
f 37/1/37 38/1/37 39/1/37
f 37/1/37 39/1/37 40/1/37
f 41/1/38 42/1/38 43/1/38
f 41/1/38 43/1/38 44/1/38
f 38/1/39 37/1/39 45/1/39
f 38/1/39 45/1/39 46/1/39
f 42/1/40 41/1/40 47/1/40
f 42/1/40 47/1/40 48/1/40
f 49/1/41 50/1/41 51/1/41
f 49/1/41 51/1/41 52/1/41
f 50/1/42 49/1/42 53/1/42
f 50/1/42 53/1/42 54/1/42
f 38/1/43 55/1/43 56/1/43
f 38/1/43 56/1/43 39/1/43
f 47/1/44 54/1/44 53/1/44
f 47/1/44 53/1/44 48/1/44
f 49/1/45 42/1/45 48/1/45
f 49/1/45 48/1/45 53/1/45
f 51/1/46 57/1/46 58/1/46
f 51/1/46 58/1/46 52/1/46
f 55/1/47 49/1/47 52/1/47
f 55/1/47 52/1/47 58/1/47
f 59/1/48 55/1/48 58/1/48
f 59/1/48 58/1/48 57/1/48
f 60/1/49 40/1/49 39/1/49
f 60/1/49 39/1/49 56/1/49
f 55/1/50 59/1/50 60/1/50
f 55/1/50 60/1/50 56/1/50
f 45/1/51 61/1/51 62/1/51
f 45/1/51 62/1/51 46/1/51
f 61/1/52 45/1/52 63/1/52
f 64/1/53 65/1/53 62/1/53
f 64/1/53 62/1/53 61/1/53
f 65/1/54 38/1/54 46/1/54
f 65/1/54 46/1/54 62/1/54
f 66/1/55 44/1/55 43/1/55
f 66/1/55 43/1/55 67/1/55
f 42/1/56 65/1/56 67/1/56
f 42/1/56 67/1/56 43/1/56
f 65/1/57 64/1/57 66/1/57
f 65/1/57 66/1/57 67/1/57
f 11/1/58 17/1/58 68/1/58
f 11/1/58 68/1/58 69/1/58
f 23/1/59 12/1/59 70/1/59
f 23/1/59 70/1/59 71/1/59
f 5/1/60 1/1/60 72/1/60
f 5/1/60 72/1/60 73/1/60
f 8/1/61 11/1/61 69/1/61
f 8/1/61 69/1/61 74/1/61
f 20/1/62 23/1/62 71/1/62
f 20/1/62 71/1/62 75/1/62
f 4/1/63 8/1/63 74/1/63
f 4/1/63 74/1/63 76/1/63
f 17/1/64 20/1/64 75/1/64
f 17/1/64 75/1/64 68/1/64
f 12/1/65 5/1/65 73/1/65
f 12/1/65 73/1/65 70/1/65
f 1/1/66 4/1/66 76/1/66
f 1/1/66 76/1/66 72/1/66
f 77/2/67 78/3/67 79/4/67
f 77/2/67 79/4/67 80/5/67
f 81/2/68 82/3/68 83/4/68
f 81/2/68 83/4/68 84/5/68
f 85/2/69 86/3/69 87/4/69
f 85/2/69 87/4/69 88/5/69
f 89/2/70 90/3/70 91/4/70
f 89/2/70 91/4/70 92/5/70
f 93/2/71 94/3/71 95/4/71
f 93/2/71 95/4/71 96/5/71
f 97/2/72 98/3/72 99/4/72
f 97/2/72 99/4/72 100/5/72
f 101/6/43 102/7/43 103/8/43
f 101/6/43 103/8/43 104/9/43
f 101/6/43 104/9/43 105/10/43
f 101/6/43 105/10/43 106/11/43
f 107/2/73 108/3/73 109/4/73
f 107/2/73 109/4/73 110/5/73
f 111/2/74 112/3/74 113/4/74
f 111/2/74 113/4/74 114/5/74
f 115/2/75 116/3/75 117/4/75
f 115/2/75 117/4/75 118/5/75
f 119/2/76 120/3/76 121/4/76
f 119/2/76 121/4/76 122/5/76
f 123/2/77 124/3/77 125/4/77
f 123/2/77 125/4/77 126/5/77
f 127/2/78 128/3/78 129/4/78
f 127/2/78 129/4/78 130/5/78
f 63/1/79 59/1/79 57/1/79
f 64/1/80 63/1/80 66/1/80
f 63/1/81 64/1/81 61/1/81
f 54/1/82 47/1/82 63/1/82
f 41/1/83 63/1/83 47/1/83
f 63/1/84 50/1/84 54/1/84
f 57/1/85 51/1/85 63/1/85
f 50/1/86 63/1/86 51/1/86
f 40/1/87 60/1/87 63/1/87
f 59/1/88 63/1/88 60/1/88
f 63/1/89 37/1/89 40/1/89
f 37/1/90 63/1/90 45/1/90
f 44/1/91 66/1/91 63/1/91
f 63/1/92 41/1/92 44/1/92
f 38/1/93 65/1/93 131/1/93
f 38/1/93 131/1/93 132/1/93
f 42/1/94 49/1/94 133/1/94
f 42/1/94 133/1/94 134/1/94
f 55/1/95 38/1/95 132/1/95
f 55/1/95 132/1/95 135/1/95
f 65/1/96 42/1/96 134/1/96
f 65/1/96 134/1/96 131/1/96
f 49/1/97 55/1/97 135/1/97
f 49/1/97 135/1/97 133/1/97
# Vertices: 135, normals: 97, texture coordinates: 11, faces: 165

