o obj1
v -0.6462824 0.11401572 1.85469
v -0.6924613 0.28659592 1.85469001
v -0.5933525 0.45825742 1.85469002
v -0.4222196 0.50210352 1.85469002
v -0.5684662 -0.32730169 2.05913699
v -0.8220903 -0.24282409 2.00212999
v -0.8565105 -0.04761787 1.911697
v -0.00111967 0.6553715 2.29658303
v 0.211557 0.874169 2.23037404
v 0.3978206 0.80637471 2.12534504
v 0.4199803 0.50210371 2.05913702
v -0.2251822 -0.6153512 2.22243197
v -0.3912273 -0.647128 2.17689897
v -0.5430709 -0.51971609 2.10466998
v 0.577782 0.44892611 2.14047802
v 0.6768908 0.2772646 2.26951101
v 0.6440432 0.1140157 2.350853
v 0.9246623 -0.06486479 2.350853
v 0.8902422 -0.2600711 2.35085299
v 0.5662271 -0.3273017 2.35085299
v 0.5775663 -0.4967404 2.26951098
v 0.4257228 -0.62415219 2.14047797
v 0.2229431 -0.61535099 2.05913697
v 0.1104649 -0.92589719 2.10466996
v 0.08120435 -0.22310704 3.20432199
v -0.08120429 -0.22310704 3.20432199
v -0.08775264 -0.9258972 2.17689896
v -0.2338185 0.04122857 3.204322
v -0.1526142 0.18187856 3.20432201
v -0.3782045 0.74077261 1.97790603
v -0.1919409 0.8085671 2.17336704
v 0.2338185 0.04122857 3.204322
v 0.1526142 0.18187866 3.20432201
v 0.2056166 -0.11871274 3.20432199
v -0.2056165 -0.11871274 3.20432199
v 0 0.23742566 3.20432201
v 0.00288117 0.10083613 3.836633
v 0.01372981 0.44372717 2.91557602
v -0.1849563 0.43598927 2.91557602
v -0.02540361 0.13585543 3.83663301
v 0.06072306 -0.07718293 3.836633
v 0.287468 -0.38080173 2.94663898
v 0.4887803 -0.27570443 2.98719099
v 0.1226804 -0.09469263 3.836633
v 0.05945086 0.17356853 3.83663301
v 0.2781252 0.54077347 2.96479002
v 0.05680716 -0.12529947 3.82280499
v 0.1152975 -0.48240423 3.05073198
v -0.3005509 -0.38563984 3.19803398
v -0.05496072 -0.07718293 3.836633
v -0.1317339 -0.10681467 3.836633
v -0.5308113 -0.32106254 3.11927499
v -0.1217577 -0.48454414 3.16193098
v -0.04835098 -0.12529947 3.82280499
v -0.4494391 0.10721517 2.915576
v -0.3898281 0.28714117 2.91557601
v -0.1674821 0.00320716 3.836633
v -0.5966684 -0.10305983 2.994336
v -0.09070897 0.03283888 3.836633
v -0.1189938 0.06785822 3.836633
v 0.1530411 0.10557133 3.836633
v 0.4769238 0.41106817 3.04285902
v 0.0964713 0.03283888 3.836633
v 0.4631689 0.15049266 3.09207301
v 0.1584286 0.01532919 3.836633
v 0.5664975 -0.04069883 3.05152
v 0 1E-08 4.148102
v 0.4701709 0.56032766 0.90859582
v 0.6628262 0.50863456 0.86547272
v 0.7734842 0.31696937 0.79706541
v 0.7203434 0.12701597 0.75394231
v 0 0.73145587 0.71846053
v 0.2232745 0.92953517 0.77147724
v 0.4312434 0.85384066 0.85557904
v 0.6334594 -0.36572794 0.99287888
v 0.7262943 -0.69352114 0.96937777
v 0.5567566 -0.83578024 0.93209706
v 0.2501728 -0.68734364 0.90859577
v -0.4701707 0.56032777 0.71846062
v -0.4082 0.73862377 0.71846053
v -0.200231 0.81431817 0.71846054
v 0.1106581 -0.81024164 0.85606266
v -0.1106578 -0.81024163 0.77272796
v -0.2501725 -0.68734373 0.72019487
v -0.5797997 -0.85882383 0.68068576
v -0.7493376 -0.71656473 0.61801147
v -0.6334593 -0.36572803 0.57850238
v -0.8036273 -0.28210073 0.67054459
v -0.8420583 -0.06414715 0.8165535
v -0.7203434 0.12701586 0.90859581
v -0.9578312 0.40914286 0.85557912
v -0.3954701 0.06973196 2.348693
v -0.2581248 0.3076211 2.34869301
v -0.8471732 0.60080817 0.77147733
v 0.2581249 0.3076211 2.34869301
v 0.3954702 0.06973202 2.348693
v 0.9265508 -0.04878483 0.8205666
v 0.8881197 -0.26673844 0.92625459
v -0.1373452 -0.3773532 2.34869298
v 0.1373454 -0.3773532 2.34869298
v -0.3477705 -0.2007854 2.34869299
v 0 0.4015708 2.34869302
v 0.3477707 -0.2007854 2.34869299
v -0.05373072 0.06403386 1.273955
v -0.08232033 0.01451522 1.295683
v 0.05373084 0.06403386 1.295683
v 0 0.08359026 1.273955
v 0.0285896 -0.0785492 1.295683
v 0.07239139 -0.04179513 1.305315
v -0.07239133 -0.04179512 1.257961
v 0.08232039 0.01451528 1.27801
v -0.02858948 -0.0785492 1.274153
v 0.2781172 0.04949302 2.492603
v 0.1811392 0.2174638 2.36634301
v -0.0980975 -0.26618871 2.43701999
v 0.09585833 -0.2661886 2.36634299
v -0.2803565 0.04949303 2.277855
v -0.2466763 -0.1415162 2.36634299
v -0.00111961 0.28380059 2.46911401
v 0.2444372 -0.14151621 2.49260299
v -0.1833785 0.2174637 2.27785501
v -0.04984861 0.13523627 0.57485441
v -0.1656832 0.06761816 0.5921477
v -0.133003 0.06761815 3.606833
v -0.01588457 0.13523634 3.60683301
v -0.1656832 0.06761816 0.5921477
v -0.1656832 -0.0676181 0.5921477
v -0.133003 -0.06761811 3.606833
v -0.133003 0.06761815 3.606833
v -0.1656832 -0.0676181 0.5921477
v -0.04984861 -0.13523623 0.57485439
v -0.01588457 -0.13523626 3.60683299
v -0.133003 -0.06761811 3.606833
v -0.04984861 -0.13523623 0.57485439
v 0.06598591 -0.06761809 0.5575611
v 0.1012337 -0.06761811 3.606833
v -0.01588457 -0.13523626 3.60683299
v 0.06598591 -0.06761809 0.5575611
v 0.06598591 0.06761817 0.5575611
v 0.1012337 0.06761815 3.606833
v 0.1012337 -0.06761811 3.606833
v 0.06598591 0.06761817 0.5575611
v -0.04984861 0.13523627 0.57485441
v -0.01588457 0.13523634 3.60683301
v 0.1012337 0.06761815 3.606833
v -0.133003 0.06761813 -0.00571221
v -0.01588457 0.1352363 -0.00571221
v 0.1012337 0.06761813 -0.00571221
v 0.1012337 -0.06761807 -0.00571221
v -0.01588457 -0.1352362 -0.00571222
v -0.133003 -0.06761813 -0.00571221
v 0.1012337 0.06761813 -0.00571221
v -0.01588457 0.1352363 -0.00571221
v -0.04984861 0.13523627 0.57485441
v 0.06598591 0.06761817 0.5575611
v 0.1012337 -0.06761807 -0.00571221
v 0.1012337 0.06761813 -0.00571221
v 0.06598591 0.06761817 0.5575611
v 0.06598591 -0.06761809 0.5575611
v -0.01588457 -0.1352362 -0.00571222
v 0.1012337 -0.06761807 -0.00571221
v 0.06598591 -0.06761809 0.5575611
v -0.04984861 -0.13523623 0.57485439
v -0.133003 -0.06761813 -0.00571221
v -0.01588457 -0.1352362 -0.00571222
v -0.04984861 -0.13523623 0.57485439
v -0.1656832 -0.0676181 0.5921477
v -0.133003 0.06761813 -0.00571221
v -0.133003 -0.06761813 -0.00571221
v -0.1656832 -0.0676181 0.5921477
v -0.1656832 0.06761816 0.5921477
v -0.01588457 0.1352363 -0.00571221
v -0.133003 0.06761813 -0.00571221
v -0.1656832 0.06761816 0.5921477
v -0.04984861 0.13523627 0.57485441
v 0.00652021 0.14036617 2.98067101
v -0.1490099 0.02736686 2.980671
v 0.09844034 -0.13650713 2.99110099
v 0.15744 0.04189925 3.039937
v -0.09901386 -0.13813173 3.07551899
vn 0 -1 0
vn 0.06811 -0.90978 0.40946
vn -0.43993 -0.88362 -0.16024
vn 0.29247 -0.93851 0.18348
vn 0.27278 -0.83807 0.47247
vn 0 -1 0
vn 0.35296 -0.83404 -0.42401
vn 0.10992 0.54879 0.82871
vn -0.34234 -0.93948 0.01375
vn -0.80814 0.35946 -0.46658
vn 0.65753 -0.71202 -0.24633
vn 0.89951 0.43542 -0.03596
vn -0.85718 0.29448 0.42252
vn -0.97483 0.21148 -0.0706
vn 0.51041 0.31362 -0.8007
vn 0.68485 0.44311 -0.57847
vn 0.1618 0.3006 -0.93993
vn 0.76199 0.6335 0.13436
vn 0.19321 0.30921 0.93116
vn 0.43594 0.45821 0.7746
vn -0.16183 0.30178 0.93954
vn 0.89968 0.41399 0.13853
vn 0.92728 0.21882 0.30377
vn -0.64209 0.43917 0.62837
vn 0.07926 0.35976 0.92967
vn -0.94925 0.31022 0.05188
vn -0.89327 0.4474 0.04358
vn -0.55831 0.21386 -0.80159
vn -0.35903 0.27615 0.89154
vn -0.23904 0.26912 -0.93297
vn -0.92993 0.27078 0.24883
vn -0.52485 0.45667 -0.71832
vn 0.41765 0.37958 -0.82552
vn 0.43058 0.54007 -0.72313
vn -0.62643 0.32664 -0.70774
vn 0.97235 0.23266 -0.02019
vn 0.11309 0.3193 -0.94088
vn 0.24983 0.33796 0.9074
vn -0.48225 0.26852 -0.83386
vn 0.70456 0.36326 0.60963
vn -0.2117 0.43754 0.87392
vn -0.45531 0.49278 0.74153
vn 0 -1 0
vn 0.14881 0.44093 0.88512
vn -0.38056 -0.87188 0.30822
vn -0.87233 0.48112 0.08695
vn 0.17357 -0.87616 0.4497
vn -0.65425 0.27963 -0.70268
vn -0.55208 0.34324 -0.75987
vn -0.9307 0.3397 -0.13564
vn 0.41296 0.4535 -0.78981
vn 0.91718 0.37368 0.13834
vn 0.24738 -0.94962 0.19241
vn 0.82453 0.44179 0.35352
vn 0.86121 0.42428 0.27982
vn 0.06847 -0.96779 -0.24227
vn 0.754 0.4028 -0.51888
vn -0.14479 -0.9554 -0.2574
vn 0.33262 -0.93478 0.12473
vn 0.12727 -0.98611 -0.10674
vn 0 -1 0
vn 0.35239 -0.93585 0
vn 0.20731 -0.96216 0.17683
vn -0.1925 -0.83062 -0.5225
vn -0.76143 0.39193 -0.51635
vn -0.16524 -0.93469 0.31474
vn 0.84912 0.28471 -0.4449
vn -0.07085 -0.90238 0.42508
vn -0.68762 0.18146 0.70303
vn 0.12467 0.13613 -0.98281
vn 0.61217 0.15258 -0.77587
vn 0.44406 0.13776 0.88534
vn -0.04557 0.27126 0.96143
vn 0.59944 0.21305 0.77155
vn -0.63406 0.3585 0.68516
vn -0.93839 0.12129 -0.3236
vn -0.9285 0.27755 0.24668
vn -0.8674 0.21356 -0.44946
vn -0.37189 0.14545 0.91681
vn -0.77011 0.14906 0.62025
vn -0.32936 0.26956 -0.90491
vn -0.93063 0.17119 -0.32346
vn 0.37587 0.18379 -0.90826
vn 0.26435 0.34871 -0.89918
vn 0.97218 0.1712 -0.15986
vn -0.67571 0.14621 -0.72252
vn 0.93598 0.1798 0.30267
vn 0.29653 0.20726 -0.93226
vn 0.9343 0.3449 0.09012
vn 0.39897 0.19312 0.8964
vn 0.56384 0.40565 0.71939
vn 0.9514 0.16917 -0.25732
vn -0.4401 0.15587 0.88432
vn 0.36382 -0.75729 0.54235
vn 0.06991 -0.75729 0.64932
vn -0.20613 -0.85798 -0.4705
vn 0.50407 -0.67381 -0.54027
vn -0.58251 -0.76696 0.26919
vn 0.59813 -0.68902 -0.40926
vn 0.23053 -0.7387 0.63338
vn -0.62379 -0.7772 0.08276
vn 0.28553 -0.75829 -0.58606
vn -0.17064 -0.73779 0.6531
vn -0.28021 -0.76898 -0.57459
vn 0.73108 -0.65909 0.17642
vn -0.55357 -0.75535 0.35073
vn 0.06302 -0.73779 -0.67208
vn 0.74148 -0.60858 0.28258
vn -0.37044 -0.92656 -0.06532
vn 0.58399 -0.76898 -0.26004
vn 0.66799 -0.63644 0.38566
vn -0.50175 0.00553 -0.865
vn -0.99994 0.01084 0
vn -0.50175 0.00553 0.865
vn 0.50174 -0.00571 0.865
vn 0.99993 -0.01156 0
vn 0.50174 -0.00571 -0.865
vn 0 -1 0
vn 0.50352 0.03047 -0.86345
vn 0.99805 0.06245 0
vn 0.50352 0.03047 0.86345
vn -0.50344 -0.02847 0.86356
vn -0.99851 -0.05458 0
vn -0.50344 -0.02847 -0.86356
vn -0.35286 0.19915 -0.91424
vn 0.26739 0.18257 -0.94614
vn 0.7769 0.17692 0.60425
vn 0 0.35944 0.93317
vn 0.96425 0.22334 0.14265
vn -0.95679 0.21684 0.19375
vn -0.84785 0.45306 0.27548
vn 0.35512 0.16534 0.92008
vn -0.54559 0.37204 -0.75094
vn -0.76813 0.15829 0.62042
vn 0.76124 0.20609 -0.61485
vn 0.51219 0.49061 -0.70496
vn -0.77527 0.18804 -0.60299
vn -0.2674 0.18233 0.94618
vn 0.15316 -0.96546 0.2108
vn 0.08038 -0.96785 -0.23835
vn 0.06114 -0.87385 0.48234
vn 0.23614 -0.94893 0.20923
vn -0.38859 -0.9115 0.13478
vt 0.36523 0.36149
vt 0.34581 0.85362
vt 0.39638 0.85362
vt 0.39638 0.90419
vt 0.34581 0.90419
vt 0.37109 0.90419
vt 0.39299 0.89155
vt 0.39299 0.86627
vt 0.37109 0.85362
vt 0.3492 0.86627
vt 0.3492 0.89155
usemtl mat0
f 1/1/1 2/1/1 3/1/1
f 1/1/1 3/1/1 4/1/1
f 5/1/2 6/1/2 7/1/2
f 5/1/2 7/1/2 1/1/2
f 8/1/3 9/1/3 10/1/3
f 8/1/3 10/1/3 11/1/3
f 12/1/4 13/1/4 14/1/4
f 12/1/4 14/1/4 5/1/4
f 11/1/5 15/1/5 16/1/5
f 11/1/5 16/1/5 17/1/5
f 17/1/6 18/1/6 19/1/6
f 17/1/6 19/1/6 20/1/6
f 20/1/7 21/1/7 22/1/7
f 20/1/7 22/1/7 23/1/7
f 24/1/8 25/1/8 26/1/8
f 24/1/8 26/1/8 27/1/8
f 23/1/9 24/1/9 27/1/9
f 23/1/9 27/1/9 12/1/9
f 2/1/10 28/1/10 29/1/10
f 2/1/10 29/1/10 3/1/10
f 4/1/11 30/1/11 31/1/11
f 4/1/11 31/1/11 8/1/11
f 17/1/12 16/1/12 32/1/12
f 12/1/13 27/1/13 26/1/13
f 29/1/14 30/1/14 4/1/14
f 32/1/15 18/1/15 17/1/15
f 15/1/16 33/1/16 32/1/16
f 15/1/16 32/1/16 16/1/16
f 33/1/17 15/1/17 11/1/17
f 18/1/18 32/1/18 34/1/18
f 18/1/18 34/1/18 19/1/18
f 20/1/19 19/1/19 34/1/19
f 21/1/20 34/1/20 25/1/20
f 21/1/20 25/1/20 22/1/20
f 23/1/21 22/1/21 25/1/21
f 34/1/22 21/1/22 20/1/22
f 25/1/23 24/1/23 23/1/23
f 13/1/24 26/1/24 35/1/24
f 13/1/24 35/1/24 14/1/24
f 26/1/25 13/1/25 12/1/25
f 5/1/26 14/1/26 35/1/26
f 6/1/27 35/1/27 28/1/27
f 6/1/27 28/1/27 7/1/27
f 1/1/28 7/1/28 28/1/28
f 35/1/29 6/1/29 5/1/29
f 4/1/30 3/1/30 29/1/30
f 28/1/31 2/1/31 1/1/31
f 30/1/32 29/1/32 36/1/32
f 30/1/32 36/1/32 31/1/32
f 8/1/33 31/1/33 36/1/33
f 9/1/34 36/1/34 33/1/34
f 9/1/34 33/1/34 10/1/34
f 36/1/35 9/1/35 8/1/35
f 11/1/36 10/1/36 33/1/36
f 37/1/37 38/1/37 39/1/37
f 37/1/37 39/1/37 40/1/37
f 41/1/38 42/1/38 43/1/38
f 41/1/38 43/1/38 44/1/38
f 38/1/39 37/1/39 45/1/39
f 38/1/39 45/1/39 46/1/39
f 42/1/40 41/1/40 47/1/40
f 42/1/40 47/1/40 48/1/40
f 49/1/41 50/1/41 51/1/41
f 49/1/41 51/1/41 52/1/41
f 50/1/42 49/1/42 53/1/42
f 50/1/42 53/1/42 54/1/42
f 38/1/43 55/1/43 56/1/43
f 38/1/43 56/1/43 39/1/43
f 47/1/44 54/1/44 53/1/44
f 47/1/44 53/1/44 48/1/44
f 49/1/45 42/1/45 48/1/45
f 49/1/45 48/1/45 53/1/45
f 51/1/46 57/1/46 58/1/46
f 51/1/46 58/1/46 52/1/46
f 55/1/47 49/1/47 52/1/47
f 55/1/47 52/1/47 58/1/47
f 59/1/48 55/1/48 58/1/48
f 59/1/48 58/1/48 57/1/48
f 60/1/49 40/1/49 39/1/49
f 60/1/49 39/1/49 56/1/49
f 55/1/50 59/1/50 60/1/50
f 55/1/50 60/1/50 56/1/50
f 45/1/51 61/1/51 62/1/51
f 45/1/51 62/1/51 46/1/51
f 63/1/52 64/1/52 62/1/52
f 63/1/52 62/1/52 61/1/52
f 64/1/53 38/1/53 46/1/53
f 64/1/53 46/1/53 62/1/53
f 65/1/54 44/1/54 43/1/54
f 65/1/54 43/1/54 66/1/54
f 44/1/55 65/1/55 67/1/55
f 42/1/56 64/1/56 66/1/56
f 42/1/56 66/1/56 43/1/56
f 64/1/57 63/1/57 65/1/57
f 64/1/57 65/1/57 66/1/57
f 68/1/58 69/1/58 70/1/58
f 68/1/58 70/1/58 71/1/58
f 72/1/59 73/1/59 74/1/59
f 72/1/59 74/1/59 68/1/59
f 75/1/60 76/1/60 77/1/60
f 75/1/60 77/1/60 78/1/60
f 79/1/61 80/1/61 81/1/61
f 79/1/61 81/1/61 72/1/61
f 78/1/62 82/1/62 83/1/62
f 78/1/62 83/1/62 84/1/62
f 84/1/63 85/1/63 86/1/63
f 84/1/63 86/1/63 87/1/63
f 87/1/64 88/1/64 89/1/64
f 87/1/64 89/1/64 90/1/64
f 91/1/65 92/1/65 93/1/65
f 91/1/65 93/1/65 94/1/65
f 90/1/66 91/1/66 94/1/66
f 90/1/66 94/1/66 79/1/66
f 69/1/67 95/1/67 96/1/67
f 69/1/67 96/1/67 70/1/67
f 71/1/68 97/1/68 98/1/68
f 71/1/68 98/1/68 75/1/68
f 84/1/69 83/1/69 99/1/69
f 79/1/70 94/1/70 93/1/70
f 96/1/71 97/1/71 71/1/71
f 99/1/72 85/1/72 84/1/72
f 82/1/73 100/1/73 99/1/73
f 82/1/73 99/1/73 83/1/73
f 100/1/74 82/1/74 78/1/74
f 85/1/75 99/1/75 101/1/75
f 85/1/75 101/1/75 86/1/75
f 87/1/76 86/1/76 101/1/76
f 88/1/77 101/1/77 92/1/77
f 88/1/77 92/1/77 89/1/77
f 90/1/78 89/1/78 92/1/78
f 101/1/79 88/1/79 87/1/79
f 92/1/80 91/1/80 90/1/80
f 80/1/81 93/1/81 102/1/81
f 80/1/81 102/1/81 81/1/81
f 93/1/82 80/1/82 79/1/82
f 72/1/83 81/1/83 102/1/83
f 73/1/84 102/1/84 95/1/84
f 73/1/84 95/1/84 74/1/84
f 68/1/85 74/1/85 95/1/85
f 102/1/86 73/1/86 72/1/86
f 71/1/87 70/1/87 96/1/87
f 95/1/88 69/1/88 68/1/88
f 97/1/89 96/1/89 103/1/89
f 97/1/89 103/1/89 98/1/89
f 75/1/90 98/1/90 103/1/90
f 76/1/91 103/1/91 100/1/91
f 76/1/91 100/1/91 77/1/91
f 103/1/92 76/1/92 75/1/92
f 78/1/93 77/1/93 100/1/93
f 90/1/94 79/1/94 104/1/94
f 90/1/94 104/1/94 105/1/94
f 72/1/95 68/1/95 106/1/95
f 72/1/95 106/1/95 107/1/95
f 75/1/96 78/1/96 108/1/96
f 75/1/96 108/1/96 109/1/96
f 87/1/97 90/1/97 105/1/97
f 87/1/97 105/1/97 110/1/97
f 71/1/98 75/1/98 109/1/98
f 71/1/98 109/1/98 111/1/98
f 84/1/99 87/1/99 110/1/99
f 84/1/99 110/1/99 112/1/99
f 79/1/100 72/1/100 107/1/100
f 79/1/100 107/1/100 104/1/100
f 68/1/101 71/1/101 111/1/101
f 68/1/101 111/1/101 106/1/101
f 78/1/102 84/1/102 112/1/102
f 78/1/102 112/1/102 108/1/102
f 11/1/103 17/1/103 113/1/103
f 11/1/103 113/1/103 114/1/103
f 23/1/104 12/1/104 115/1/104
f 23/1/104 115/1/104 116/1/104
f 5/1/105 1/1/105 117/1/105
f 5/1/105 117/1/105 118/1/105
f 8/1/106 11/1/106 114/1/106
f 8/1/106 114/1/106 119/1/106
f 20/1/107 23/1/107 116/1/107
f 20/1/107 116/1/107 120/1/107
f 4/1/108 8/1/108 119/1/108
f 4/1/108 119/1/108 121/1/108
f 17/1/109 20/1/109 120/1/109
f 17/1/109 120/1/109 113/1/109
f 12/1/110 5/1/110 118/1/110
f 12/1/110 118/1/110 115/1/110
f 1/1/111 4/1/111 121/1/111
f 1/1/111 121/1/111 117/1/111
f 122/2/112 123/3/112 124/4/112
f 122/2/112 124/4/112 125/5/112
f 126/2/113 127/3/113 128/4/113
f 126/2/113 128/4/113 129/5/113
f 130/2/114 131/3/114 132/4/114
f 130/2/114 132/4/114 133/5/114
f 134/2/115 135/3/115 136/4/115
f 134/2/115 136/4/115 137/5/115
f 138/2/116 139/3/116 140/4/116
f 138/2/116 140/4/116 141/5/116
f 142/2/117 143/3/117 144/4/117
f 142/2/117 144/4/117 145/5/117
f 146/6/118 147/7/118 148/8/118
f 146/6/118 148/8/118 149/9/118
f 146/6/118 149/9/118 150/10/118
f 146/6/118 150/10/118 151/11/118
f 152/2/119 153/3/119 154/4/119
f 152/2/119 154/4/119 155/5/119
f 156/2/120 157/3/120 158/4/120
f 156/2/120 158/4/120 159/5/120
f 160/2/121 161/3/121 162/4/121
f 160/2/121 162/4/121 163/5/121
f 164/2/122 165/3/122 166/4/122
f 164/2/122 166/4/122 167/5/122
f 168/2/123 169/3/123 170/4/123
f 168/2/123 170/4/123 171/5/123
f 172/2/124 173/3/124 174/4/124
f 172/2/124 174/4/124 175/5/124
f 67/1/125 59/1/125 57/1/125
f 63/1/126 67/1/126 65/1/126
f 67/1/127 63/1/127 61/1/127
f 54/1/128 47/1/128 67/1/128
f 41/1/129 67/1/129 47/1/129
f 67/1/130 50/1/130 54/1/130
f 57/1/131 51/1/131 67/1/131
f 50/1/132 67/1/132 51/1/132
f 40/1/133 60/1/133 67/1/133
f 59/1/134 67/1/134 60/1/134
f 67/1/135 37/1/135 40/1/135
f 61/1/136 45/1/136 67/1/136
f 37/1/137 67/1/137 45/1/137
f 67/1/138 41/1/138 44/1/138
f 55/1/139 38/1/139 176/1/139
f 55/1/139 176/1/139 177/1/139
f 64/1/140 42/1/140 178/1/140
f 64/1/140 178/1/140 179/1/140
f 49/1/141 55/1/141 177/1/141
f 49/1/141 177/1/141 180/1/141
f 38/1/142 64/1/142 179/1/142
f 38/1/142 179/1/142 176/1/142
f 42/1/143 49/1/143 180/1/143
f 42/1/143 180/1/143 178/1/143
# Vertices: 180, normals: 143, texture coordinates: 11, faces: 237

