o obj1
v -0.6462824 0.11401567 2.908819
v -0.6976583 0.27759457 2.90881901
v -0.5881556 0.46725867 2.90881902
v -0.4222196 0.50210357 2.90881902
v -0.5684662 -0.32730174 3.11326599
v -0.8202854 -0.25306003 3.06100099
v -0.8583154 -0.03738195 2.961085
v -0.00111967 0.65537145 3.35071303
v 0.20179 0.87772386 3.29001104
v 0.4075876 0.80281976 3.17396804
v 0.4199803 0.50210366 3.11326602
v -0.2251822 -0.61535124 3.27656097
v -0.3832652 -0.65380904 3.23481597
v -0.551033 -0.51303514 3.15501198
v 0.5725851 0.45792746 3.18784102
v 0.6820877 0.26826335 3.33040701
v 0.6440432 0.11401565 3.404982
v 0.9264672 -0.05462887 3.404982
v 0.8884373 -0.27030705 3.40498199
v 0.5662271 -0.32730165 3.40498199
v 0.5855284 -0.49005935 3.33040698
v 0.4177607 -0.63083324 3.18784097
v 0.2229431 -0.61535104 3.11326597
v 0.1208587 -0.92589724 3.15501196
v 0.08120435 -0.22310709 4.25845099
v -0.08120429 -0.22310709 4.25845099
v -0.09814649 -0.92589724 3.23481596
v -0.2338185 0.04122858 4.258451
v -0.1526142 0.18187861 4.25845101
v -0.3879715 0.73721777 3.02178603
v -0.1821739 0.81212196 3.23774604
v 0.2338185 0.04122858 4.258451
v 0.1526142 0.18187861 4.25845101
v 0.2056166 -0.11871279 4.25845099
v -0.2056165 -0.11871279 4.25845099
v 0 0.23742561 4.25845101
v 0.00288117 0.10083609 4.890762
v 0.01372981 0.44372713 3.96970602
v -0.1742135 0.44379433 3.96970602
v -0.02540361 0.13585549 4.89076201
v 0.06072306 -0.07718292 4.890762
v 0.287468 -0.38080177 4.00076898
v 0.4847052 -0.28802728 4.03794799
v 0.1226804 -0.09469261 4.890762
v 0.05945086 0.17356859 4.89076201
v 0.2677009 0.54757472 4.01482602
v 0.05680716 -0.12529941 4.87693499
v 0.1277279 -0.48229198 4.09902998
v -0.3005509 -0.38563979 4.25216398
v -0.05496072 -0.07718292 4.890762
v -0.1317339 -0.10681471 4.890762
v -0.5273579 -0.33249378 4.17995499
v -0.1341881 -0.48465638 4.22189098
v -0.04835098 -0.12529941 4.87693499
v -0.4494391 0.10721523 3.969706
v -0.4005708 0.27933613 3.96970601
v -0.1674821 0.00320711 4.890762
v -0.6001217 -0.09162855 4.041914
v -0.09070897 0.0328389 4.890762
v -0.1189938 0.06785824 4.890762
v 0.1530411 0.10557139 4.890762
v 0.4873481 0.40426692 4.10108202
v 0.0964713 0.0328389 4.890762
v 0.4631689 0.15049272 4.14620201
v 0.1584286 0.01532921 4.890762
v 0.5705727 -0.02837598 4.109023
v 0 1E-08 5.202231
v 0.4701709 0.56032761 1.96272502
v 0.6570237 0.51868482 1.92318902
v 0.7792867 0.30691912 1.84760801
v 0.7203434 0.12701592 1.80807201
v 0 0.73145582 1.77259003
v 0.2123693 0.93350422 1.82119704
v 0.4421486 0.84987142 1.91411904
v 0.6334594 -0.36572789 2.04700798
v 0.7351843 -0.68606159 2.02546197
v 0.5478667 -0.84323989 1.98427196
v 0.2501728 -0.68734369 1.96272497
v -0.4701707 0.56032772 1.77259002
v -0.4191051 0.73465452 1.77259003
v -0.1893259 0.81828732 1.77259004
v 0.1222631 -0.81024168 1.91456196
v -0.1222627 -0.81024168 1.82248796
v -0.2501725 -0.68734378 1.77432397
v -0.5709097 -0.86628328 1.73810196
v -0.7582275 -0.70910517 1.66885497
v -0.6334593 -0.36572797 1.63263198
v -0.801612 -0.29352938 1.71701799
v -0.8440735 -0.05271842 1.878339
v -0.7203434 0.12701591 1.96272501
v -0.9636337 0.39909262 1.91411902
v -0.3954701 0.06973197 3.402822
v -0.2581248 0.30762115 3.40282201
v -0.8413707 0.61085832 1.82119703
v 0.2581249 0.30762115 3.40282201
v 0.3954702 0.06973197 3.402822
v 0.928566 -0.03735609 1.869154
v 0.8861045 -0.27816709 1.98592599
v -0.1373452 -0.37735325 3.40282198
v 0.1373454 -0.37735315 3.40282198
v -0.3477705 -0.20078545 3.40282199
v 0 0.40157085 3.40282202
v 0.3477707 -0.20078535 3.40282199
v -0.05373072 0.06403388 2.328084
v -0.08232033 0.01451524 2.349813
v 0.05373084 0.06403388 2.349813
v 0 0.08359028 2.328084
v 0.0285896 -0.07854918 2.349813
v 0.07239139 -0.04179517 2.359445
v -0.07239133 -0.04179517 2.31209
v 0.08232039 0.01451524 2.332139
v -0.02858948 -0.07854918 2.328283
v 0.2781172 0.04949303 3.546732
v 0.1811392 0.21746375 3.42047301
v -0.0980975 -0.26618865 3.49114999
v 0.09585833 -0.26618865 3.42047299
v -0.2803565 0.04949304 3.331985
v -0.2466763 -0.14151615 3.42047299
v -0.00111961 0.28380055 3.52324301
v 0.2444372 -0.14151616 3.54673199
v -0.1833785 0.21746375 3.33198501
v -0.04984861 0.13523627 0.57485441
v -0.1656832 0.06761816 0.5921477
v -0.133003 0.06761817 4.660963
v -0.01588457 0.1352363 4.66096301
v -0.1656832 0.06761816 0.5921477
v -0.1656832 -0.0676181 0.5921477
v -0.133003 -0.06761809 4.660963
v -0.133003 0.06761817 4.660963
v -0.1656832 -0.0676181 0.5921477
v -0.04984861 -0.13523623 0.57485439
v -0.01588457 -0.1352362 4.66096299
v -0.133003 -0.06761809 4.660963
v -0.04984861 -0.13523623 0.57485439
v 0.06598591 -0.06761809 0.5575611
v 0.1012337 -0.06761809 4.660963
v -0.01588457 -0.1352362 4.66096299
v 0.06598591 -0.06761809 0.5575611
v 0.06598591 0.06761817 0.5575611
v 0.1012337 0.06761817 4.660963
v 0.1012337 -0.06761809 4.660963
v 0.06598591 0.06761817 0.5575611
v -0.04984861 0.13523627 0.57485441
v -0.01588457 0.1352363 4.66096301
v 0.1012337 0.06761817 4.660963
v -0.133003 0.06761813 -0.00571221
v -0.01588457 0.1352363 -0.00571221
v 0.1012337 0.06761813 -0.00571221
v 0.1012337 -0.06761807 -0.00571221
v -0.01588457 -0.1352362 -0.00571222
v -0.133003 -0.06761813 -0.00571221
v 0.1012337 0.06761813 -0.00571221
v -0.01588457 0.1352363 -0.00571221
v -0.04984861 0.13523627 0.57485441
v 0.06598591 0.06761817 0.5575611
v 0.1012337 -0.06761807 -0.00571221
v 0.1012337 0.06761813 -0.00571221
v 0.06598591 0.06761817 0.5575611
v 0.06598591 -0.06761809 0.5575611
v -0.01588457 -0.1352362 -0.00571222
v 0.1012337 -0.06761807 -0.00571221
v 0.06598591 -0.06761809 0.5575611
v -0.04984861 -0.13523623 0.57485439
v -0.133003 -0.06761813 -0.00571221
v -0.01588457 -0.1352362 -0.00571222
v -0.04984861 -0.13523623 0.57485439
v -0.1656832 -0.0676181 0.5921477
v -0.133003 0.06761813 -0.00571221
v -0.133003 -0.06761813 -0.00571221
v -0.1656832 -0.0676181 0.5921477
v -0.1656832 0.06761816 0.5921477
v -0.01588457 0.1352363 -0.00571221
v -0.133003 0.06761813 -0.00571221
v -0.1656832 0.06761816 0.5921477
v -0.04984861 0.13523627 0.57485441
v -0.6294739 0.11105365 1.072243
v -0.6795086 0.27036235 1.07224301
v -0.5728645 0.45507535 1.07224302
v -0.4112603 0.48901055 1.07224302
v -0.5536891 -0.31874325 1.20220499
v -0.7989347 -0.24643965 1.16898099
v -0.8359718 -0.03639178 1.105467
v -0.00115305 0.63827744 1.35314303
v 0.1964597 0.85482534 1.31455704
v 0.396885 0.78187675 1.24079103
v 0.4089542 0.48901055 1.20220502
v -0.2193666 -0.59927326 1.30600697
v -0.3733227 -0.63672706 1.27947097
v -0.536711 -0.49962805 1.22874198
v 0.5575752 0.44598765 1.24961102
v 0.6642193 0.26127474 1.34023601
v 0.6271679 0.11105364 1.387642
v 0.9022193 -0.0531885 1.387642
v 0.8651823 -0.26323636 1.38764199
v 0.5513832 -0.31874316 1.38764199
v 0.5701807 -0.47725216 1.34023598
v 0.4067925 -0.61435105 1.24961097
v 0.2170606 -0.59927305 1.20220497
v 0.1176411 -0.90171255 1.22874196
v 0.06724345 -0.18254119 2.11423099
v -0.0654897 -0.18254119 2.11423099
v -0.09564697 -0.90171256 1.27947096
v -0.1902182 0.03349479 2.114231
v -0.1238515 0.14844501 2.11423101
v -0.3779061 0.71798715 1.14405303
v -0.1774809 0.79093604 1.28133303
v 0.1919718 0.03349479 2.114231
v 0.1256052 0.14844511 2.11423101
v 0.168923 -0.09722194 2.114231
v -0.1671693 -0.09722194 2.114231
v 0.00087679 0.19384261 2.11423101
v 0.06782418 0.01242619 1.430971
v 0.0438686 0.05391842 1.410614
v -0.02510851 -0.06555354 1.422009
v 0.02280253 -0.06555354 1.410614
v -0.07013016 0.01242619 1.396347
v -0.06181049 -0.03475689 1.410614
v -0.00115299 0.07030492 1.427184
v 0.0595045 -0.03475689 1.430971
v -0.04617464 0.05391842 1.396347
v 0.09329593 -0.12985858 4.04644099
v 0.1491194 0.03894388 4.092648
v -0.1408336 0.02519374 4.036572
v -0.09352898 -0.13139568 4.12631399
v 0.00632399 0.13211002 4.03657201
vn 0 -1 -0
vn 0.06811 -0.90978 0.40946
vn -0.43993 -0.88362 -0.16024
vn 0.29247 -0.93851 0.18349
vn 0.27278 -0.83807 0.47247
vn 0 -1 0
vn 0.35296 -0.83404 -0.42401
vn 0.11477 0.54852 0.82822
vn -0.34234 -0.93948 0.01375
vn -0.80814 0.35946 -0.46658
vn 0.65753 -0.71203 -0.24633
vn 0.90166 0.43224 0.01341
vn -0.87282 0.28597 0.39549
vn -0.97765 0.20564 -0.0436
vn 0.48834 0.30447 -0.81781
vn 0.68053 0.44261 -0.58394
vn 0.12986 0.29502 -0.94663
vn 0.76199 0.6335 0.13436
vn 0.16617 0.29981 0.93942
vn 0.4299 0.45752 0.77838
vn -0.1882 0.29732 0.93605
vn 0.91153 0.40396 0.077
vn 0.93656 0.21162 0.27942
vn -0.64488 0.43897 0.62565
vn 0.13287 0.35082 0.92697
vn -0.952 0.30541 0.02071
vn -0.89362 0.44716 0.03862
vn -0.53408 0.20742 -0.81959
vn -0.32317 0.26772 0.90768
vn -0.19824 0.26359 -0.94404
vn -0.91981 0.26552 0.28889
vn -0.53375 0.45542 -0.71253
vn 0.46554 0.36967 -0.80413
vn 0.43669 0.53945 -0.71992
vn -0.65617 0.31626 -0.68514
vn 0.97413 0.22591 0.00546
vn 0.1518 0.31914 -0.93547
vn 0.21811 0.33505 0.91661
vn -0.50541 0.26587 -0.8209
vn 0.72379 0.36187 0.58752
vn -0.17132 0.43191 0.88549
vn -0.48576 0.496 0.71974
vn 0 -1 0
vn 0.15317 0.4406 0.88454
vn -0.3812 -0.87163 0.30815
vn -0.87328 0.48042 0.08106
vn 0.17357 -0.87616 0.4497
vn -0.6361 0.27609 -0.72052
vn -0.55208 0.34324 -0.75987
vn -0.93591 0.33975 -0.093
vn 0.40939 0.45317 -0.79186
vn 0.91263 0.3696 0.17463
vn 0.24738 -0.94962 0.19241
vn 0.82358 0.44168 0.35586
vn 0.86121 0.42428 0.27982
vn 0.06847 -0.96779 -0.24227
vn 0.73027 0.39949 -0.55417
vn -0.14479 -0.9554 -0.2574
vn 0.33262 -0.93478 0.12473
vn 0.12727 -0.98611 -0.10674
vn 0 -1 -0
vn 0.35239 -0.93585 -0
vn 0.20731 -0.96216 0.17683
vn -0.1925 -0.83062 -0.5225
vn -0.75941 0.3918 -0.51941
vn -0.16524 -0.93469 0.31474
vn 0.85013 0.28469 -0.44297
vn -0.07085 -0.90238 0.42508
vn -0.71581 0.17812 0.6752
vn 0.15068 0.13227 -0.97969
vn 0.58569 0.14794 -0.79692
vn 0.47134 0.1333 0.87182
vn -0.0481 0.27123 0.96131
vn 0.6352 0.20977 0.74331
vn -0.63591 0.35846 0.68347
vn -0.92934 0.11737 -0.35006
vn -0.92734 0.27751 0.25107
vn -0.8486 0.21074 -0.48524
vn -0.33036 0.14029 0.93337
vn -0.75032 0.1436 0.64528
vn -0.32936 0.26956 -0.90491
vn -0.94635 0.16606 -0.27721
vn 0.41 0.1809 -0.89396
vn 0.26122 0.34864 -0.90012
vn 0.97856 0.16558 -0.1225
vn -0.69916 0.1418 -0.70076
vn 0.9234 0.17585 0.34119
vn 0.25377 0.20331 -0.94566
vn 0.93472 0.3448 0.08607
vn 0.3618 0.18734 0.91324
vn 0.56252 0.40563 0.72044
vn 0.94337 0.16367 -0.28857
vn -0.46715 0.15093 0.8712
vn 0.36382 -0.75729 0.54235
vn 0.06991 -0.75729 0.64932
vn -0.20613 -0.85798 -0.4705
vn 0.50407 -0.67381 -0.54027
vn -0.58251 -0.76696 0.26919
vn 0.59813 -0.68902 -0.40926
vn 0.23053 -0.7387 0.63338
vn -0.62379 -0.7772 0.08276
vn 0.28553 -0.75829 -0.58606
vn -0.17064 -0.73779 0.6531
vn -0.28021 -0.76898 -0.57459
vn 0.73108 -0.65909 0.17642
vn -0.55357 -0.75535 0.35073
vn 0.06302 -0.73779 -0.67208
vn 0.74148 -0.60858 0.28258
vn -0.37044 -0.92656 -0.06532
vn 0.58399 -0.76898 -0.26004
vn 0.66799 -0.63644 0.38566
vn -0.50183 0.0041 -0.86496
vn -0.99997 0.00803 0
vn -0.50183 0.0041 0.86496
vn 0.50182 -0.00424 0.86496
vn 0.99996 -0.00859 0
vn 0.50182 -0.00424 -0.86496
vn 0.50352 0.03047 -0.86345
vn 0.99805 0.06245 0
vn 0.50352 0.03047 0.86345
vn -0.50344 -0.02847 0.86356
vn -0.99851 -0.05458 0
vn -0.50344 -0.02847 -0.86356
vn -0.35286 0.19915 -0.91424
vn 0.26739 0.18257 -0.94614
vn 0.7769 0.17692 0.60425
vn 0 0.35944 0.93317
vn 0.96425 0.22334 0.14265
vn -0.95679 0.21684 0.19375
vn -0.84785 0.45306 0.27548
vn 0.35512 0.16534 0.92008
vn -0.54559 0.37204 -0.75094
vn -0.76814 0.15829 0.62041
vn 0.76124 0.20609 -0.61485
vn 0.51218 0.49061 -0.70496
vn -0.77527 0.18804 -0.60299
vn -0.2674 0.18233 0.94618
vn 0.04683 -0.9584 0.28154
vn -0.30712 -0.94507 -0.11186
vn 0.19779 -0.97236 0.12408
vn 0.19553 -0.92037 0.33867
vn 0 -1 0
vn 0.2536 -0.91808 -0.30465
vn 0.09372 0.63927 0.76325
vn -0.23138 -0.97282 0.0093
vn -0.76825 0.46158 -0.44355
vn 0.50684 -0.84087 -0.18988
vn 0.85916 0.50913 0.05124
vn -0.85263 0.35839 0.38023
vn -0.95829 0.28113 -0.05142
vn 0.47622 0.37037 -0.79752
vn 0.65301 0.53287 -0.53817
vn 0.1414 0.38456 -0.9122
vn 0.70218 0.70115 0.12381
vn 0.16217 0.36488 0.91682
vn 0.41965 0.54816 0.72347
vn -0.16865 0.38659 0.9067
vn 0.8795 0.47441 0.03758
vn 0.91951 0.27801 0.27787
vn -0.60137 0.53312 0.59509
vn 0.14217 0.43211 0.89054
vn -0.91789 0.39583 0.02809
vn -0.83387 0.55017 0.04449
vn -0.52709 0.28187 -0.8017
vn -0.30814 0.34585 0.88625
vn -0.19232 0.3524 -0.91588
vn -0.89187 0.35512 0.28011
vn -0.48124 0.55463 -0.67882
vn 0.47736 0.44215 -0.75936
vn 0.38788 0.62927 -0.67347
vn -0.64606 0.38618 -0.65838
vn 0.95495 0.29678 -0.00025
vn 0.00738 -0.89942 0.43702
vn -0.22189 -0.93294 -0.28353
vn 0.46951 -0.86466 0.17867
vn -0.38094 -0.91684 0.11952
vn 0.15641 -0.89942 -0.40814
vn 0.58763 -0.80234 0.10459
vn -0.07969 -0.99672 -0.01405
vn 0.35223 -0.93294 -0.07457
vn 0.44951 -0.85475 0.25952
vn 0.08038 -0.96785 -0.23835
vn 0.06114 -0.87385 0.48234
vn 0.23614 -0.94893 0.20923
vn -0.38858 -0.9115 0.13478
vn 0.15316 -0.96546 0.2108
vt 0.1017 0.37699
vt 0.34581 0.85362
vt 0.39638 0.85362
vt 0.39638 0.90419
vt 0.34581 0.90419
vt 0.37109 0.90419
vt 0.39299 0.89155
vt 0.39299 0.86627
vt 0.37109 0.85362
vt 0.3492 0.86627
vt 0.3492 0.89155
usemtl mat0
f 1/1/1 2/1/1 3/1/1
f 1/1/1 3/1/1 4/1/1
f 5/1/2 6/1/2 7/1/2
f 5/1/2 7/1/2 1/1/2
f 8/1/3 9/1/3 10/1/3
f 8/1/3 10/1/3 11/1/3
f 12/1/4 13/1/4 14/1/4
f 12/1/4 14/1/4 5/1/4
f 11/1/5 15/1/5 16/1/5
f 11/1/5 16/1/5 17/1/5
f 17/1/6 18/1/6 19/1/6
f 17/1/6 19/1/6 20/1/6
f 20/1/7 21/1/7 22/1/7
f 20/1/7 22/1/7 23/1/7
f 24/1/8 25/1/8 26/1/8
f 24/1/8 26/1/8 27/1/8
f 23/1/9 24/1/9 27/1/9
f 23/1/9 27/1/9 12/1/9
f 2/1/10 28/1/10 29/1/10
f 2/1/10 29/1/10 3/1/10
f 4/1/11 30/1/11 31/1/11
f 4/1/11 31/1/11 8/1/11
f 17/1/12 16/1/12 32/1/12
f 12/1/13 27/1/13 26/1/13
f 29/1/14 30/1/14 4/1/14
f 32/1/15 18/1/15 17/1/15
f 15/1/16 33/1/16 32/1/16
f 15/1/16 32/1/16 16/1/16
f 33/1/17 15/1/17 11/1/17
f 18/1/18 32/1/18 34/1/18
f 18/1/18 34/1/18 19/1/18
f 20/1/19 19/1/19 34/1/19
f 21/1/20 34/1/20 25/1/20
f 21/1/20 25/1/20 22/1/20
f 23/1/21 22/1/21 25/1/21
f 34/1/22 21/1/22 20/1/22
f 25/1/23 24/1/23 23/1/23
f 13/1/24 26/1/24 35/1/24
f 13/1/24 35/1/24 14/1/24
f 26/1/25 13/1/25 12/1/25
f 5/1/26 14/1/26 35/1/26
f 6/1/27 35/1/27 28/1/27
f 6/1/27 28/1/27 7/1/27
f 1/1/28 7/1/28 28/1/28
f 35/1/29 6/1/29 5/1/29
f 4/1/30 3/1/30 29/1/30
f 28/1/31 2/1/31 1/1/31
f 30/1/32 29/1/32 36/1/32
f 30/1/32 36/1/32 31/1/32
f 8/1/33 31/1/33 36/1/33
f 9/1/34 36/1/34 33/1/34
f 9/1/34 33/1/34 10/1/34
f 36/1/35 9/1/35 8/1/35
f 11/1/36 10/1/36 33/1/36
f 37/1/37 38/1/37 39/1/37
f 37/1/37 39/1/37 40/1/37
f 41/1/38 42/1/38 43/1/38
f 41/1/38 43/1/38 44/1/38
f 38/1/39 37/1/39 45/1/39
f 38/1/39 45/1/39 46/1/39
f 42/1/40 41/1/40 47/1/40
f 42/1/40 47/1/40 48/1/40
f 49/1/41 50/1/41 51/1/41
f 49/1/41 51/1/41 52/1/41
f 50/1/42 49/1/42 53/1/42
f 50/1/42 53/1/42 54/1/42
f 38/1/43 55/1/43 56/1/43
f 38/1/43 56/1/43 39/1/43
f 47/1/44 54/1/44 53/1/44
f 47/1/44 53/1/44 48/1/44
f 49/1/45 42/1/45 48/1/45
f 49/1/45 48/1/45 53/1/45
f 51/1/46 57/1/46 58/1/46
f 51/1/46 58/1/46 52/1/46
f 55/1/47 49/1/47 52/1/47
f 55/1/47 52/1/47 58/1/47
f 59/1/48 55/1/48 58/1/48
f 59/1/48 58/1/48 57/1/48
f 60/1/49 40/1/49 39/1/49
f 60/1/49 39/1/49 56/1/49
f 55/1/50 59/1/50 60/1/50
f 55/1/50 60/1/50 56/1/50
f 45/1/51 61/1/51 62/1/51
f 45/1/51 62/1/51 46/1/51
f 63/1/52 64/1/52 62/1/52
f 63/1/52 62/1/52 61/1/52
f 64/1/53 38/1/53 46/1/53
f 64/1/53 46/1/53 62/1/53
f 65/1/54 44/1/54 43/1/54
f 65/1/54 43/1/54 66/1/54
f 44/1/55 65/1/55 67/1/55
f 42/1/56 64/1/56 66/1/56
f 42/1/56 66/1/56 43/1/56
f 64/1/57 63/1/57 65/1/57
f 64/1/57 65/1/57 66/1/57
f 68/1/58 69/1/58 70/1/58
f 68/1/58 70/1/58 71/1/58
f 72/1/59 73/1/59 74/1/59
f 72/1/59 74/1/59 68/1/59
f 75/1/60 76/1/60 77/1/60
f 75/1/60 77/1/60 78/1/60
f 79/1/61 80/1/61 81/1/61
f 79/1/61 81/1/61 72/1/61
f 78/1/62 82/1/62 83/1/62
f 78/1/62 83/1/62 84/1/62
f 84/1/63 85/1/63 86/1/63
f 84/1/63 86/1/63 87/1/63
f 87/1/64 88/1/64 89/1/64
f 87/1/64 89/1/64 90/1/64
f 91/1/65 92/1/65 93/1/65
f 91/1/65 93/1/65 94/1/65
f 90/1/66 91/1/66 94/1/66
f 90/1/66 94/1/66 79/1/66
f 69/1/67 95/1/67 96/1/67
f 69/1/67 96/1/67 70/1/67
f 71/1/68 97/1/68 98/1/68
f 71/1/68 98/1/68 75/1/68
f 84/1/69 83/1/69 99/1/69
f 79/1/70 94/1/70 93/1/70
f 96/1/71 97/1/71 71/1/71
f 99/1/72 85/1/72 84/1/72
f 82/1/73 100/1/73 99/1/73
f 82/1/73 99/1/73 83/1/73
f 100/1/74 82/1/74 78/1/74
f 85/1/75 99/1/75 101/1/75
f 85/1/75 101/1/75 86/1/75
f 87/1/76 86/1/76 101/1/76
f 88/1/77 101/1/77 92/1/77
f 88/1/77 92/1/77 89/1/77
f 90/1/78 89/1/78 92/1/78
f 101/1/79 88/1/79 87/1/79
f 92/1/80 91/1/80 90/1/80
f 80/1/81 93/1/81 102/1/81
f 80/1/81 102/1/81 81/1/81
f 93/1/82 80/1/82 79/1/82
f 72/1/83 81/1/83 102/1/83
f 73/1/84 102/1/84 95/1/84
f 73/1/84 95/1/84 74/1/84
f 68/1/85 74/1/85 95/1/85
f 102/1/86 73/1/86 72/1/86
f 71/1/87 70/1/87 96/1/87
f 95/1/88 69/1/88 68/1/88
f 97/1/89 96/1/89 103/1/89
f 97/1/89 103/1/89 98/1/89
f 75/1/90 98/1/90 103/1/90
f 76/1/91 103/1/91 100/1/91
f 76/1/91 100/1/91 77/1/91
f 103/1/92 76/1/92 75/1/92
f 78/1/93 77/1/93 100/1/93
f 90/1/94 79/1/94 104/1/94
f 90/1/94 104/1/94 105/1/94
f 72/1/95 68/1/95 106/1/95
f 72/1/95 106/1/95 107/1/95
f 75/1/96 78/1/96 108/1/96
f 75/1/96 108/1/96 109/1/96
f 87/1/97 90/1/97 105/1/97
f 87/1/97 105/1/97 110/1/97
f 71/1/98 75/1/98 109/1/98
f 71/1/98 109/1/98 111/1/98
f 84/1/99 87/1/99 110/1/99
f 84/1/99 110/1/99 112/1/99
f 79/1/100 72/1/100 107/1/100
f 79/1/100 107/1/100 104/1/100
f 68/1/101 71/1/101 111/1/101
f 68/1/101 111/1/101 106/1/101
f 78/1/102 84/1/102 112/1/102
f 78/1/102 112/1/102 108/1/102
f 11/1/103 17/1/103 113/1/103
f 11/1/103 113/1/103 114/1/103
f 23/1/104 12/1/104 115/1/104
f 23/1/104 115/1/104 116/1/104
f 5/1/105 1/1/105 117/1/105
f 5/1/105 117/1/105 118/1/105
f 8/1/106 11/1/106 114/1/106
f 8/1/106 114/1/106 119/1/106
f 20/1/107 23/1/107 116/1/107
f 20/1/107 116/1/107 120/1/107
f 4/1/108 8/1/108 119/1/108
f 4/1/108 119/1/108 121/1/108
f 17/1/109 20/1/109 120/1/109
f 17/1/109 120/1/109 113/1/109
f 12/1/110 5/1/110 118/1/110
f 12/1/110 118/1/110 115/1/110
f 1/1/111 4/1/111 121/1/111
f 1/1/111 121/1/111 117/1/111
f 122/2/112 123/3/112 124/4/112
f 122/2/112 124/4/112 125/5/112
f 126/2/113 127/3/113 128/4/113
f 126/2/113 128/4/113 129/5/113
f 130/2/114 131/3/114 132/4/114
f 130/2/114 132/4/114 133/5/114
f 134/2/115 135/3/115 136/4/115
f 134/2/115 136/4/115 137/5/115
f 138/2/116 139/3/116 140/4/116
f 138/2/116 140/4/116 141/5/116
f 142/2/117 143/3/117 144/4/117
f 142/2/117 144/4/117 145/5/117
f 146/6/6 147/7/6 148/8/6
f 146/6/6 148/8/6 149/9/6
f 146/6/6 149/9/6 150/10/6
f 146/6/6 150/10/6 151/11/6
f 152/2/118 153/3/118 154/4/118
f 152/2/118 154/4/118 155/5/118
f 156/2/119 157/3/119 158/4/119
f 156/2/119 158/4/119 159/5/119
f 160/2/120 161/3/120 162/4/120
f 160/2/120 162/4/120 163/5/120
f 164/2/121 165/3/121 166/4/121
f 164/2/121 166/4/121 167/5/121
f 168/2/122 169/3/122 170/4/122
f 168/2/122 170/4/122 171/5/122
f 172/2/123 173/3/123 174/4/123
f 172/2/123 174/4/123 175/5/123
f 67/1/124 59/1/124 57/1/124
f 63/1/125 67/1/125 65/1/125
f 67/1/126 63/1/126 61/1/126
f 54/1/127 47/1/127 67/1/127
f 41/1/128 67/1/128 47/1/128
f 67/1/129 50/1/129 54/1/129
f 57/1/130 51/1/130 67/1/130
f 50/1/131 67/1/131 51/1/131
f 40/1/132 60/1/132 67/1/132
f 59/1/133 67/1/133 60/1/133
f 67/1/134 37/1/134 40/1/134
f 61/1/135 45/1/135 67/1/135
f 37/1/136 67/1/136 45/1/136
f 67/1/137 41/1/137 44/1/137
f 176/1/6 177/1/6 178/1/6
f 176/1/6 178/1/6 179/1/6
f 180/1/138 181/1/138 182/1/138
f 180/1/138 182/1/138 176/1/138
f 183/1/139 184/1/139 185/1/139
f 183/1/139 185/1/139 186/1/139
f 187/1/140 188/1/140 189/1/140
f 187/1/140 189/1/140 180/1/140
f 186/1/141 190/1/141 191/1/141
f 186/1/141 191/1/141 192/1/141
f 192/1/142 193/1/142 194/1/142
f 192/1/142 194/1/142 195/1/142
f 195/1/143 196/1/143 197/1/143
f 195/1/143 197/1/143 198/1/143
f 199/1/144 200/1/144 201/1/144
f 199/1/144 201/1/144 202/1/144
f 198/1/145 199/1/145 202/1/145
f 198/1/145 202/1/145 187/1/145
f 177/1/146 203/1/146 204/1/146
f 177/1/146 204/1/146 178/1/146
f 179/1/147 205/1/147 206/1/147
f 179/1/147 206/1/147 183/1/147
f 192/1/148 191/1/148 207/1/148
f 187/1/149 202/1/149 201/1/149
f 204/1/150 205/1/150 179/1/150
f 207/1/151 193/1/151 192/1/151
f 190/1/152 208/1/152 207/1/152
f 190/1/152 207/1/152 191/1/152
f 208/1/153 190/1/153 186/1/153
f 193/1/154 207/1/154 209/1/154
f 193/1/154 209/1/154 194/1/154
f 195/1/155 194/1/155 209/1/155
f 196/1/156 209/1/156 200/1/156
f 196/1/156 200/1/156 197/1/156
f 198/1/157 197/1/157 200/1/157
f 209/1/158 196/1/158 195/1/158
f 200/1/159 199/1/159 198/1/159
f 188/1/160 201/1/160 210/1/160
f 188/1/160 210/1/160 189/1/160
f 201/1/161 188/1/161 187/1/161
f 180/1/162 189/1/162 210/1/162
f 181/1/163 210/1/163 203/1/163
f 181/1/163 203/1/163 182/1/163
f 176/1/164 182/1/164 203/1/164
f 210/1/165 181/1/165 180/1/165
f 179/1/166 178/1/166 204/1/166
f 203/1/167 177/1/167 176/1/167
f 205/1/168 204/1/168 211/1/168
f 205/1/168 211/1/168 206/1/168
f 183/1/169 206/1/169 211/1/169
f 184/1/170 211/1/170 208/1/170
f 184/1/170 208/1/170 185/1/170
f 211/1/171 184/1/171 183/1/171
f 186/1/172 185/1/172 208/1/172
f 186/1/173 192/1/173 212/1/173
f 186/1/173 212/1/173 213/1/173
f 198/1/174 187/1/174 214/1/174
f 198/1/174 214/1/174 215/1/174
f 180/1/175 176/1/175 216/1/175
f 180/1/175 216/1/175 217/1/175
f 183/1/176 186/1/176 213/1/176
f 183/1/176 213/1/176 218/1/176
f 195/1/177 198/1/177 215/1/177
f 195/1/177 215/1/177 219/1/177
f 179/1/178 183/1/178 218/1/178
f 179/1/178 218/1/178 220/1/178
f 192/1/179 195/1/179 219/1/179
f 192/1/179 219/1/179 212/1/179
f 187/1/180 180/1/180 217/1/180
f 187/1/180 217/1/180 214/1/180
f 176/1/181 179/1/181 220/1/181
f 176/1/181 220/1/181 216/1/181
f 64/1/182 42/1/182 221/1/182
f 64/1/182 221/1/182 222/1/182
f 49/1/183 55/1/183 223/1/183
f 49/1/183 223/1/183 224/1/183
f 38/1/184 64/1/184 222/1/184
f 38/1/184 222/1/184 225/1/184
f 42/1/185 49/1/185 224/1/185
f 42/1/185 224/1/185 221/1/185
f 55/1/186 38/1/186 225/1/186
f 55/1/186 225/1/186 223/1/186
# Vertices: 225, normals: 186, texture coordinates: 11, faces: 309

