o obj1
v 1.22463303 0.70374216 -0.73166427
v 0.82670173 0.46081189 -1.05088169
v 0.57357166 0.00918284 -0.69416993
v 0.31164038 0.24051271 -0.7328206
v 0.33725866 0.72408611 -0.89873895
v 1.15448395 0.21548388 -0.68493623
v 1.31330116 0.55124566 -0.12889604
v 0.84000361 1.14641344 -0.5817556
v 0.21927976 0.53042715 -0.10486503
v 0.72133207 0.53018532 0.18137208
v 0.46791866 0.35405676 0.08546502
v 0.26447063 0.92436723 -0.13824741
v 0.86063323 0.96820328 -0.00366389
v -0.89612287 -0.34900156 0.22117282
v -0.75841995 0.61191275 0.32636753
v -1.10353534 0.55525453 0.85239318
v -0.86219138 0.15838872 1.26839025
v -0.65034679 0.15838874 0.00715158
v -1.26175869 0.08143208 0.23864262
v -0.14057182 0.15612517 0.47627838
v -0.49496885 -0.48104907 0.47627848
v -1.28527793 -0.22826954 0.84984783
v -1.37687762 0.08143209 0.60591089
v -0.56539436 0.66888072 0.73593261
v -0.71784581 -0.39525425 1.04083201
v -0.25077981 0.08143216 1.0368997
v 0.55902538 -0.60075462 -0.50100095
v 0.36428793 -0.91989327 -0.3513302
v 0.14332632 -0.60075458 -0.24408579
v 0.97472384 -0.60075451 0.17161521
v 0.80236702 -0.88457962 -0.35132965
v 0.9543771 -0.60075459 -0.28057934
v 0.75670055 -0.45713657 -0.43159034
v 0.31468384 -0.60075461 -0.43158907
v 0.48352137 -0.3683738 -0.4315904
v 1.00104425 -0.45713595 -0.03623531
v 0.91410243 -0.93091037 0.09001267
v 0.11700618 -0.74437264 -0.03623526
v 0.35475257 -1.04047718 0.09001278
v 0.163673 -0.60075451 0.20810881
v 0.67820233 -0.68734108 0.42997897
v 0.36134965 -0.74437211 0.35911971
v 0.36134965 -0.45713644 0.35911966
v 0.87824744 -0.35782088 0.21603415
v -0.56938603 -0.44452033 -0.44821197
v -1.18022801 0.5842478 -0.62702852
v -0.56938603 0.3702996 -0.44821211
v -1.0164037 -0.80919163 0.08239816
v -1.26821336 -0.13742273 0.72036919
v -1.19870422 -0.24812077 -0.87215254
v -1.1329481 -0.7285894 -0.50755281
v -0.4709359 -0.03711037 -0.50905809
v -0.80551281 -0.03711043 -0.8437686
v -1.78864753 -0.24812048 -0.5075492
v -1.67647121 0.15370409 -0.66843879
v -0.67464051 -0.66405643 -0.10163989
v -1.58280473 -0.65473465 0.17811937
v -1.93910453 -0.03711037 -0.14316971
v -0.67464051 0.58983594 -0.1016401
v -1.38012799 0.73225662 -0.14316933
v -0.5968329 -0.42458199 0.30577844
v -1.78691385 0.17923651 0.30426801
v -0.5968329 0.35036155 0.30577831
v -0.72273082 -0.0371102 0.55757089
v -1.08005987 0.58424751 0.42374763
v 1.48627212 -0.64164986 -0.35601958
v 0.34047825 -0.02402421 -0.4228291
v 1.03080854 0.66745459 -0.48217249
v 1.69038124 0.19232237 -0.48217011
v 0.47285388 -0.43143404 0.27031192
v 0.47285388 0.38338584 0.27031179
v 1.69211538 -0.23503418 0.32965056
v 1.10217207 0.18698619 0.69425236
v 0.96505242 -0.23503469 -0.84677292
v 1.35824384 -0.0240243 -0.81838852
v 0.50030121 -0.41149595 -0.4836784
v 0.770981 0.16678839 -0.81838993
v 0.50030121 0.36344755 -0.48367853
v 1.84257239 -0.02402411 -0.03473071
v 0.91987156 -0.79610543 -0.26029777
v 0.57810882 -0.65097016 -0.07626004
v 0.57810882 0.60292175 -0.07626024
v 1.28359538 0.7453429 -0.034731
v 0.37440426 -0.02402408 0.33115796
v 1.03641596 0.66745519 0.3296524
v 1.08369678 -0.64538201 0.44912815
v 1.57993676 0.16678989 0.49053809
v 0.70898112 -0.02402411 0.66586888
v -0.93840997 0.2482653 -0.57691145
v -0.32391218 0.69998315 -0.75385572
v -0.00020074 0.24826587 0.94115581
v -0.1771412 -0.29631385 -1.04739622
v -0.09228888 -0.91631536 -0.5769131
v 0.75882999 -0.30319945 -0.57690952
v 0.33023711 -0.02402433 -1.01076957
v -0.79365298 -0.27025296 -0.78452194
v 0.4387369 0.69572476 -0.57691152
v 0.95521838 -0.02402411 0.00046915
v 0.23390916 -1.01682204 0.00046961
v -0.67278703 -0.82101319 0.30788358
v -0.67645666 0.78499237 -0.05312029
v -1.13256018 -0.02402415 -0.10670966
v 0.23390943 0.96877365 0.00046921
v -0.93617179 0.25515105 0.47066957
v -0.0850531 0.8682665 0.47067177
v 0.76106771 0.24826579 0.47067003
v 0.14656964 -0.7480311 0.64761485
v 0.61631164 -0.27025213 0.67828161
v -0.50757873 -0.02402402 0.90452916
vn 0.6767 -0.16587 -0.71733
vn -0.98921 0.00215 -0.14648
vn -0.51742 0.81402 -0.2639
vn -0.98723 0.10295 -0.1216
vn 0.76237 0.64512 0.05106
vn 0.44615 0.22413 0.86644
vn -0.22842 0.4396 0.86866
vn -0.45503 0.17979 0.87214
vn -0.54153 0.13247 0.83018
vn 0.69307 0.69547 0.18966
vn -0.13639 0.94531 0.29628
vn 0.97061 -0.15691 -0.18248
vn 0.3067 0.53343 -0.78828
vn 0.0467 0.56348 -0.82481
vn -0.41722 -0.27509 -0.86617
vn -0.30282 -0.4804 -0.82311
vn 0.25347 -0.68307 -0.68496
vn 0.63296 -0.35205 -0.6895
vn -0.3185 -0.23327 -0.91877
vn -0.64884 0.67404 -0.35309
vn 0.60677 0.69659 -0.38286
vn -0.30806 -0.95133 -0.008
vn -0.21372 0.97626 -0.03507
vn -0.39966 -0.43569 0.8065
vn -0.76901 0.17638 0.61442
vn -0.00301 0.72267 0.69118
vn 0.3528 0.56937 0.74253
vn 0.30618 -0.29252 0.90592
vn 0.80347 0.54868 0.23105
vn -0.81704 0.18775 0.54516
vn -0.29153 -0.95609 0.03021
vn 0.66724 -0.65078 0.36231
vn 0.86895 -0.48331 0.10643
vn -0.7795 0.57678 -0.24433
vn -0.84736 -0.45982 -0.2656
vn -0.72522 -0.60252 -0.33321
vn 0.56167 0.56153 -0.60763
vn -0.36309 0.47689 -0.80046
vn 0.34107 -0.50078 -0.79555
vn 0.03564 -0.44208 -0.89627
vn -0.26284 -0.27354 -0.92525
vn -0.26803 0.19474 -0.94352
vn 0.87608 -0.40337 -0.26414
vn 0.07756 -0.96216 -0.26121
vn -0.81132 -0.42786 -0.39837
vn 0.63403 0.11189 0.76517
vn 0.14947 0.473 0.86829
vn -0.21824 0 0.97589
vn -0.72525 -0.45413 0.51747
vn -0.04461 -0.67135 0.7398
vn 0.14745 -0.75273 0.64161
vn 0.67537 -0.29145 0.67744
vn -0.78718 -0.45413 0.41727
vn -0.72181 -0.6635 -0.19688
vn 0.19005 -0.97025 -0.14997
vn 0.98357 -0.18055 -0.0002
vn 0.97765 -0.19813 -0.07027
vn -0.71002 -0.27354 -0.64888
vn 0.55996 -0.09473 -0.82309
vn 0.40892 -0.12602 -0.90382
vn 0.68167 -0.26649 -0.6814
vn -0.16578 0.28197 -0.94499
vn -0.08302 0.28322 -0.95546
vn -0.56509 0.6942 -0.44581
vn 0.40488 0.82302 -0.39838
vn -0.27437 -0.95856 -0.07676
vn 0.18785 -0.63843 0.7464
vn 0.21574 0.32256 0.92163
vn 0.39734 0.40577 0.82309
vn -0.38671 0.43504 0.81314
vn -0.69756 -0.27105 0.66328
vn -0.07114 -0.70078 0.70982
vn 0.33007 -0.43661 0.83692
vn 0.47646 0.79469 0.37611
vn -0.49916 0.73651 0.45649
vn -0.86168 -0.27536 0.42624
vn 0.52119 -0.77551 0.35629
vn 0.18677 0.97019 0.15444
vn 0.2053 0.9564 -0.20774
vn -0.80898 0.58776 -0.00903
vn -0.79466 0.57735 -0.18759
vn -0.9031 0.08346 -0.42123
vn -0.85317 -0.51907 -0.05169
vn -0.56599 -0.77242 -0.28814
vn 0.29716 -0.93641 -0.18664
vn 0.44822 -0.81042 -0.37724
vn 0.40105 0.5078 -0.76243
vn -0.51612 -0.19029 -0.83511
vn -0.42716 -0.58295 -0.69116
vn 0.68167 0.26649 -0.6814
vn 0.34394 -0.5373 -0.77008
vn 0.35219 -0.53885 -0.76524
vn 0.76659 -0.27537 -0.5801
vn 0.02712 0.08346 -0.99614
vn 0.86168 -0.27537 -0.42624
vn -0.45832 0.8017 -0.3837
vn 0.52869 0.73392 -0.42644
vn -0.19408 0.9791 -0.06079
vn 0.80898 0.58776 0.00903
vn -0.40105 -0.5078 0.76243
vn -0.68167 0.26649 0.6814
vn 0.33558 0.59816 0.72773
vn -0.34394 0.5373 0.77008
vn -0.35219 0.53885 0.76524
vn -0.68167 -0.26649 0.6814
vn 0.08302 -0.28322 0.95546
vn 0.36795 -0.27018 0.88973
vn 0.35268 -0.2613 0.89852
vn 0.9031 0.08346 0.42123
vn 0.79465 0.57735 0.1876
vn 0.50541 0.70744 0.49406
vn -0.20145 0.97684 0.07215
vn -0.44822 0.81042 0.37724
vn -0.40488 -0.82302 0.39838
vn -0.25705 -0.93152 0.25727
vn 0.57387 -0.76836 0.28337
vn 0.85317 -0.51907 0.05169
vn -0.52119 -0.77551 -0.35629
vn 0.28205 -0.94962 0.13662
vn 0.39327 0.54593 -0.73979
vn 0.15981 0.49183 -0.8559
vn -0.36612 0.64223 -0.67342
vn -0.70813 0.18508 -0.6814
vn -0.63469 -0.14252 -0.75951
vn -0.55144 -0.20929 -0.80754
vn -0.2683 -0.68568 -0.67665
vn 0.08136 -0.72331 -0.68571
vn 0.33532 -0.51907 -0.78621
vn -0.37589 0.21051 -0.90244
vn -0.0764 0.27142 -0.95942
vn -0.9031 -0.08346 -0.42123
vn -0.61545 0.68346 -0.39255
vn 0.80898 -0.58776 0.00903
vn -0.22466 -0.97351 -0.04254
vn -0.18177 0.96108 -0.20804
vn 0.80898 0.58776 0.00903
vn 0.51612 0.19029 0.83511
vn 0.42716 0.58295 0.69116
vn -0.34394 0.5373 0.77008
vn -0.39327 0.54593 0.73979
vn -0.76659 -0.27537 0.5801
vn 0.0764 -0.27142 0.95942
vn -0.28189 -0.53686 0.79518
vn 0.19334 -0.25097 0.94849
vn 0.809 0.58777 -0.00633
vn 0.51276 0.69976 0.49741
vn -0.20145 0.97684 0.07215
vn -0.51625 0.71664 0.46895
vn -0.86168 -0.27537 0.42624
vn -0.07279 -0.9245 0.37417
vn 0.65233 -0.66473 0.36414
vn 0.79465 -0.57735 0.18759
vn 0.9031 -0.08346 0.42123
vn 0.09723 0.91261 -0.39709
vn -0.87121 0.48714 0.06079
vn -0.86678 0.49345 -0.07215
vn -0.80187 -0.56448 -0.19588
vn -0.59321 -0.74333 -0.30913
vn 0.52869 -0.73392 -0.42644
vn 0.86137 0.27602 -0.42644
vn 0.2004 0.48344 -0.85213
vn -0.4231 0.23252 -0.87574
vn -0.33558 -0.59816 -0.72773
vn 0.7639 0.24478 -0.59711
vn 0.34394 -0.5373 -0.77008
vn 0.39327 -0.54593 -0.73979
f 6//1 2//1 1//1
f 5//2 4//2 9//2
f 8//3 5//3 12//3
f 5//4 9//4 12//4
f 1//5 8//5 7//5
f 10//6 7//6 13//6
f 13//7 12//7 10//7
f 12//8 11//8 10//8
f 12//9 9//9 11//9
f 8//10 13//10 7//10
f 8//11 12//11 13//11
f 6//12 1//12 7//12
f 2//13 8//13 1//13
f 2//14 5//14 8//14
f 5//15 2//15 4//15
f 2//16 3//16 4//16
f 2//17 6//17 3//17
f 21//18 18//18 20//18
f 18//19 14//19 19//19
f 15//20 19//20 16//20
f 20//21 15//21 24//21
f 14//22 21//22 22//22
f 15//23 16//23 24//23
f 22//24 25//24 17//24
f 16//25 22//25 17//25
f 24//26 16//26 17//26
f 26//27 24//27 17//27
f 25//28 26//28 17//28
f 20//29 24//29 26//29
f 23//30 22//30 16//30
f 22//31 21//31 25//31
f 21//32 26//32 25//32
f 21//33 20//33 26//33
f 16//34 19//34 23//34
f 23//35 19//35 22//35
f 19//36 14//36 22//36
f 18//37 15//37 20//37
f 18//38 19//38 15//38
f 14//39 18//39 21//39
f 27//40 31//40 28//40
f 27//41 28//41 34//41
f 27//42 34//42 35//42
f 31//43 32//43 37//43
f 28//44 31//44 39//44
f 29//45 28//45 38//45
f 30//46 44//46 41//46
f 44//47 43//47 41//47
f 43//48 42//48 41//48
f 40//49 39//49 42//49
f 42//50 39//50 41//50
f 39//51 37//51 41//51
f 37//52 30//52 41//52
f 38//53 39//53 40//53
f 38//54 28//54 39//54
f 39//55 31//55 37//55
f 37//56 36//56 30//56
f 37//57 32//57 36//57
f 34//58 28//58 29//58
f 32//59 31//59 33//59
f 31//60 27//60 33//60
f 45//61 53//61 52//61
f 50//62 55//62 46//62
f 50//63 46//63 53//63
f 46//64 55//64 60//64
f 47//65 46//65 59//65
f 51//66 48//66 57//66
f 48//67 61//67 49//67
f 64//68 65//68 49//68
f 64//69 63//69 65//69
f 65//70 62//70 49//70
f 62//71 57//71 49//71
f 57//72 48//72 49//72
f 49//73 61//73 64//73
f 59//74 65//74 63//74
f 60//75 62//75 65//75
f 58//76 57//76 62//76
f 56//77 61//77 48//77
f 59//78 60//78 65//78
f 59//79 46//79 60//79
f 60//80 58//80 62//80
f 60//81 55//81 58//81
f 55//82 54//82 58//82
f 58//83 54//83 57//83
f 54//84 51//84 57//84
f 48//85 51//85 56//85
f 51//86 45//86 56//86
f 53//87 46//87 47//87
f 55//88 50//88 54//88
f 50//89 51//89 54//89
f 52//90 53//90 47//90
f 50//91 53//91 51//91
f 53//92 45//92 51//92
f 66//93 75//93 69//93
f 74//94 77//94 75//94
f 66//95 69//95 79//95
f 68//96 78//96 82//96
f 69//97 68//97 83//97
f 68//98 82//98 83//98
f 69//99 83//99 79//99
f 70//100 86//100 88//100
f 71//101 84//101 88//101
f 87//102 85//102 73//102
f 73//103 85//103 88//103
f 85//104 71//104 88//104
f 84//105 70//105 88//105
f 88//106 86//106 73//106
f 86//107 87//107 73//107
f 86//108 72//108 87//108
f 79//109 87//109 72//109
f 79//110 83//110 87//110
f 83//111 85//111 87//111
f 83//112 82//112 85//112
f 82//113 71//113 85//113
f 81//114 86//114 70//114
f 81//115 80//115 86//115
f 66//116 72//116 86//116
f 66//117 79//117 72//117
f 76//118 80//118 81//118
f 80//119 66//119 86//119
f 75//120 68//120 69//120
f 75//121 77//121 68//121
f 77//122 78//122 68//122
f 77//123 67//123 78//123
f 77//124 76//124 67//124
f 77//125 74//125 76//125
f 74//126 80//126 76//126
f 74//127 66//127 80//127
f 74//128 75//128 66//128
f 92//129 96//129 90//129
f 92//130 90//130 95//130
f 89//131 96//131 102//131
f 90//132 89//132 101//132
f 94//133 98//133 99//133
f 93//134 99//134 100//134
f 90//135 101//135 103//135
f 97//136 103//136 98//136
f 108//137 106//137 91//137
f 106//138 105//138 91//138
f 91//139 105//139 109//139
f 105//140 104//140 109//140
f 104//141 100//141 109//141
f 109//142 107//142 91//142
f 109//143 100//143 107//143
f 107//144 108//144 91//144
f 98//145 103//145 106//145
f 103//146 105//146 106//146
f 103//147 101//147 105//147
f 101//148 104//148 105//148
f 102//149 100//149 104//149
f 99//150 107//150 100//150
f 99//151 108//151 107//151
f 99//152 98//152 108//152
f 98//153 106//153 108//153
f 97//154 90//154 103//154
f 101//155 102//155 104//155
f 101//156 89//156 102//156
f 102//157 96//157 100//157
f 96//158 93//158 100//158
f 93//159 94//159 99//159
f 94//160 97//160 98//160
f 95//161 90//161 97//161
f 90//162 96//162 89//162
f 92//163 93//163 96//163
f 94//164 95//164 97//164
f 92//165 95//165 93//165
f 95//166 94//166 93//166
# Vertices: 109, normals: 166, texture coordinates: 0, faces: 166

